<?xml version="1.0" standalone="no"?>
<!DOCTYPE svg PUBLIC "-//W3C//DTD SVG 20010904//EN"
 "http://www.w3.org/TR/2001/REC-SVG-20010904/DTD/svg10.dtd">
<svg version="1.0" xmlns="http://www.w3.org/2000/svg"
 width="1024.000000pt" height="1024.000000pt" viewBox="0 0 1024.000000 1024.000000"
 preserveAspectRatio="xMidYMid meet">
<metadata>
Created by potrace 1.11, written by Peter Selinger 2001-2013
</metadata>
<g transform="translate(0.000000,1024.000000) scale(0.100000,-0.100000)"
fill="#000000" stroke="none">
<path d="M0 5120 l0 -5120 5120 0 5120 0 0 5120 0 5120 -5120 0 -5120 0 0
-5120z m4835 4402 c-11 -2 -26 -9 -32 -14 -8 -7 -13 -7 -13 -1 0 13 42 32 55
24 6 -3 1 -7 -10 -9z m305 8 c24 -8 24 -8 3 -9 -16 -1 -21 -6 -17 -16 4 -8 10
-15 16 -15 5 0 7 4 4 9 -3 5 3 11 14 14 11 3 18 1 14 -4 -3 -5 -1 -9 5 -9 5 0
12 4 15 8 8 14 49 7 54 -9 3 -11 1 -11 -7 1 -7 9 -11 10 -11 3 0 -17 21 -28
29 -15 4 7 35 11 71 11 36 -1 87 0 113 0 32 1 49 -4 53 -13 3 -9 33 -16 92
-20 114 -9 215 -26 223 -38 7 -11 20 -13 194 -31 72 -8 141 -19 155 -25 22
-10 19 -11 -30 -13 l-55 -2 77 -11 c42 -6 80 -14 84 -18 4 -5 15 -8 24 -8 8 0
33 -9 55 -20 22 -11 56 -20 76 -20 20 0 42 -7 49 -15 7 -8 23 -15 36 -15 13 0
24 -4 24 -9 0 -5 15 -11 33 -15 17 -3 46 -13 62 -21 17 -8 64 -25 105 -38 44
-13 74 -28 72 -35 -1 -7 9 -12 26 -12 15 0 34 -6 40 -12 7 -7 31 -13 53 -14
24 0 44 -6 50 -15 8 -12 10 -12 18 0 7 11 10 9 16 -8 4 -12 15 -21 26 -21 11
0 18 -4 15 -9 -6 -9 24 -39 31 -32 6 5 66 -22 81 -36 7 -7 20 -13 28 -13 8 0
14 -4 14 -9 0 -4 23 -18 51 -29 28 -12 48 -26 44 -32 -4 -6 7 -10 27 -10 25 0
45 -10 78 -40 25 -22 53 -40 63 -40 11 0 30 -9 44 -20 14 -11 32 -20 41 -20 8
0 44 -20 81 -44 36 -24 76 -47 89 -50 12 -4 22 -12 22 -17 0 -5 6 -9 13 -9 6
0 30 -18 51 -40 22 -22 47 -40 57 -40 9 0 22 -7 30 -16 7 -8 26 -22 43 -31 17
-9 39 -26 49 -39 10 -13 23 -24 28 -24 6 0 22 -11 37 -25 15 -14 35 -25 44
-25 10 0 18 -6 18 -12 1 -16 74 -68 95 -68 8 0 15 -4 15 -8 0 -5 16 -17 35
-28 20 -10 33 -24 30 -31 -2 -7 3 -13 12 -13 18 0 21 -2 116 -94 38 -36 73
-66 79 -66 5 0 27 -18 49 -41 23 -24 43 -37 50 -33 8 4 9 3 5 -4 -4 -7 17 -36
51 -71 32 -32 83 -84 113 -115 30 -31 58 -56 63 -56 4 0 7 -7 7 -15 0 -8 4
-15 8 -15 5 0 16 -16 25 -35 9 -19 22 -35 29 -35 18 0 119 -111 143 -157 11
-21 22 -40 25 -43 18 -15 119 -150 136 -180 10 -19 22 -39 27 -45 4 -5 17 -23
29 -40 13 -16 23 -34 24 -40 0 -5 2 -16 2 -22 1 -7 9 -13 17 -13 8 0 15 -7 15
-14 0 -8 11 -36 24 -61 14 -25 22 -53 19 -61 -3 -7 0 -14 6 -14 6 0 11 -11 11
-23 0 -13 11 -37 24 -52 13 -16 27 -43 31 -62 3 -18 10 -33 15 -33 5 0 14 -17
21 -37 6 -21 16 -40 20 -43 9 -6 39 -114 39 -139 0 -8 6 -22 13 -30 22 -27 57
-142 67 -224 10 -84 16 -101 31 -92 5 4 9 -12 9 -34 0 -31 4 -41 16 -41 14 0
15 -11 9 -85 -8 -98 -1 -155 20 -155 8 0 15 -9 15 -20 0 -11 -7 -20 -15 -20
-13 0 -14 -10 -9 -57 4 -32 11 -61 16 -64 9 -6 10 -57 3 -139 -5 -51 -7 -159
-4 -177 1 -4 1 -20 0 -35 -1 -39 -19 -35 -23 5 -2 17 -7 -28 -11 -102 -4 -74
-12 -142 -17 -152 -6 -10 -10 -37 -10 -60 0 -25 -6 -46 -15 -53 -8 -6 -16 -30
-19 -54 -2 -23 -11 -51 -20 -61 -13 -14 -14 -21 -6 -26 12 -7 10 -35 -5 -82
-6 -17 -3 -23 9 -23 19 0 20 -13 5 -42 -7 -12 -15 -44 -19 -72 l-8 -51 -1 63
c-1 78 -21 75 -21 -4 0 -30 -4 -54 -10 -54 -5 0 -10 -17 -10 -39 0 -22 -8 -49
-18 -62 -16 -21 -63 -179 -65 -216 0 -7 -9 -15 -19 -19 -19 -6 -25 -24 -8 -24
21 0 9 -20 -16 -26 -14 -4 -21 -10 -15 -13 7 -5 2 -31 -15 -79 -14 -40 -23
-76 -20 -81 3 -4 -6 -14 -19 -21 -25 -13 -35 -40 -15 -40 23 0 7 -19 -21 -25
-24 -5 -28 -9 -18 -16 12 -8 12 -10 0 -18 -7 -5 -10 -14 -7 -20 4 -6 0 -11
-11 -11 -14 0 -15 -2 -4 -9 17 -11 7 -41 -13 -41 -16 0 -28 -24 -20 -44 3 -7
-7 -27 -21 -45 -26 -30 -26 -31 -6 -31 23 0 28 -15 9 -23 -10 -4 -10 -8 1 -15
23 -16 -11 -44 -44 -36 -19 5 -25 2 -25 -9 0 -9 -12 -29 -26 -46 -23 -28 -24
-31 -7 -32 12 -1 10 -3 -7 -8 -18 -5 -25 -14 -25 -30 0 -15 -8 -27 -20 -32
-11 -4 -15 -8 -8 -8 15 -1 7 -25 -19 -63 -10 -14 -18 -33 -18 -41 0 -9 -10
-17 -22 -19 -14 -2 -22 -9 -19 -18 2 -8 4 -21 4 -28 0 -9 9 -11 29 -7 15 4 28
2 28 -3 0 -17 -59 -12 -70 6 -9 16 -9 16 -10 -1 0 -10 9 -21 20 -25 20 -7 20
-7 0 -20 -16 -10 -18 -9 -14 3 7 17 -31 22 -41 5 -3 -5 0 -7 9 -4 11 4 14 0
11 -15 -2 -13 1 -18 10 -15 15 6 15 -20 0 -33 -4 -4 -5 -2 -1 5 4 7 1 12 -7
12 -8 0 -18 7 -21 15 -4 12 -10 14 -25 5 -28 -14 -30 -13 -27 15 3 20 0 23
-15 15 -14 -8 -22 -4 -38 16 -11 14 -22 24 -25 22 -3 -2 -13 8 -22 21 -11 16
-19 19 -24 11 -5 -8 -9 -7 -13 4 -4 9 -2 16 3 16 6 0 10 5 10 10 0 6 -7 10
-15 10 -11 0 -14 7 -9 25 4 18 2 25 -9 25 -10 0 -13 -9 -11 -30 2 -16 -1 -30
-6 -30 -6 0 -9 3 -9 7 3 19 -2 27 -9 15 -6 -9 -13 -8 -28 7 -11 10 -42 28 -68
40 -54 24 -56 43 -5 52 l34 5 -39 17 c-21 9 -45 17 -52 17 -8 0 -14 5 -14 10
0 6 -6 10 -12 10 -7 0 0 -12 16 -26 15 -14 25 -28 21 -32 -4 -4 -10 -1 -12 6
-3 6 -11 12 -19 12 -8 0 -14 5 -14 11 0 6 -7 9 -15 5 -9 -3 -15 0 -15 9 0 8
-7 15 -15 15 -8 0 -15 5 -15 11 0 6 -6 9 -12 6 -7 -2 -26 3 -43 11 -25 13 -27
16 -12 21 16 6 16 8 1 26 -12 15 -14 16 -10 3 3 -9 -2 -19 -11 -22 -11 -5 -14
-2 -9 10 3 9 9 27 13 42 5 20 3 24 -10 19 -11 -4 -14 -2 -11 7 6 16 -15 33
-25 20 -7 -11 -117 -11 -148 0 -13 4 -23 14 -23 21 0 9 -6 12 -15 9 -11 -5
-15 1 -15 21 0 15 -4 24 -10 20 -11 -7 -30 35 -36 79 -2 16 -8 34 -14 41 -10
12 -7 46 6 67 4 7 3 8 -4 4 -20 -12 -27 42 -8 63 18 19 22 36 6 26 -6 -3 -7 1
-4 9 3 9 2 16 -3 16 -5 0 -9 17 -8 38 1 20 -3 43 -8 49 -7 9 -5 13 7 13 19 0
20 10 4 45 -9 21 -9 28 1 35 10 5 12 19 7 43 -5 25 -3 36 7 40 10 4 13 19 12
46 -1 25 3 45 11 52 8 6 12 14 9 18 -2 4 3 25 11 47 8 21 17 47 21 57 3 9 14
17 24 17 11 0 19 5 19 11 0 6 -9 8 -20 4 -16 -5 -20 -2 -20 18 0 13 3 26 6 30
10 10 11 101 2 114 -11 14 -18 52 -21 105 -1 21 -8 40 -15 43 -7 3 -10 10 -7
15 4 6 0 22 -9 35 -9 13 -16 33 -16 43 0 11 -11 40 -25 66 -14 26 -25 56 -25
67 0 29 -18 59 -35 59 -9 0 -15 9 -15 23 0 25 -13 49 -26 48 -5 0 -9 6 -9 15
0 8 -6 19 -14 23 -7 5 -10 14 -7 20 11 16 -3 51 -20 51 -8 0 -14 10 -14 24 0
17 -15 35 -55 65 -55 41 -69 59 -39 47 8 -3 12 -2 9 4 -3 6 -11 10 -16 10 -5
0 -26 15 -45 33 -42 37 -58 45 -99 46 -16 1 -37 6 -45 12 -11 7 -1 9 35 6 103
-10 202 -42 211 -69 8 -26 23 -22 17 3 -4 13 -22 28 -44 38 -22 9 -39 22 -39
28 0 7 -10 12 -22 12 -31 -1 -104 8 -128 16 -12 4 -20 2 -20 -6 0 -8 -4 -8
-12 -1 -12 9 -47 17 -128 27 -19 3 -50 9 -68 14 -18 6 -39 8 -47 5 -7 -3 -16
-1 -20 5 -5 9 29 17 58 12 4 0 7 4 7 9 0 6 -21 11 -47 11 -153 4 -163 4 -168
-9 -3 -10 -10 -10 -25 -2 -16 9 -20 8 -20 -5 0 -8 -7 -15 -16 -15 -8 0 -13 -4
-10 -9 3 -5 -1 -14 -9 -21 -16 -14 -15 -17 -35 60 -22 79 -28 226 -12 257 11
20 10 54 -3 133 -3 19 -8 53 -10 75 -2 22 -5 51 -8 65 -22 125 -29 198 -32
335 -1 66 -6 161 -9 210 -4 50 -8 124 -10 165 -2 42 -8 85 -15 97 -6 12 -11
54 -11 93 0 53 -4 72 -15 76 -10 4 -13 14 -9 28 3 13 -4 49 -16 82 -12 32 -25
84 -30 114 -5 30 -12 74 -15 98 -7 41 -7 42 19 42 14 0 26 3 26 7 0 15 -34 43
-52 43 -11 0 -16 5 -13 10 3 6 -7 18 -24 28 -46 26 -49 44 -6 36 25 -4 39 -2
51 11 17 16 15 17 -20 12 -29 -4 -46 0 -73 19 -20 13 -44 24 -54 24 -10 0 -26
12 -36 28 -10 15 -23 31 -31 35 -20 13 -72 65 -72 73 0 4 8 13 18 20 16 13 16
13 -1 14 -9 0 -16 3 -16 8 3 18 -2 32 -12 32 -7 0 -9 -10 -5 -24 5 -20 2 -24
-13 -23 -11 0 -18 4 -16 8 6 8 -33 44 -40 37 -7 -7 22 -63 40 -78 17 -14 20
-30 5 -30 -41 0 -123 109 -120 158 4 52 0 59 -37 70 -50 15 -73 12 -94 -9 -14
-14 -24 -16 -56 -8 -21 5 -42 9 -48 9 -5 0 -4 4 4 9 12 8 12 12 2 25 -7 9 -17
13 -22 10 -5 -3 -9 1 -10 8 0 7 -3 24 -5 38 -2 14 -4 38 -4 53 0 15 -4 37 -10
47 -6 11 -13 35 -15 53 -11 87 -30 137 -53 137 -9 0 -13 7 -9 19 3 12 -3 27
-14 37 -20 18 -27 40 -9 29 6 -3 10 1 10 9 0 9 0 18 0 21 0 3 -3 5 -6 4 -4 0
-15 12 -25 28 -10 15 -19 24 -19 19 0 -5 -18 14 -40 42 -22 27 -40 55 -40 60
0 6 -6 17 -14 24 -16 17 -59 98 -51 98 3 0 -1 13 -10 30 -10 19 -20 27 -30 24
-9 -4 -15 0 -15 8 0 8 -18 31 -40 53 -21 21 -37 42 -34 47 3 4 0 8 -7 8 -15 0
-69 56 -69 71 0 6 -6 9 -13 6 -8 -3 -20 3 -27 13 -8 11 -17 17 -22 14 -4 -3
-11 1 -14 10 -3 8 -18 18 -34 21 -19 4 -29 14 -32 30 -3 13 0 26 5 28 6 2 3 6
-7 10 -10 4 -15 3 -11 -3 3 -6 -3 -10 -15 -10 -12 0 -19 4 -16 9 4 5 -7 12
-24 16 -16 4 -32 10 -34 14 -8 12 27 10 42 -2 10 -8 16 -7 21 2 6 9 15 9 36 1
20 -8 31 -8 39 0 16 16 -5 43 -43 54 -17 5 -31 13 -31 17 0 14 -40 10 -41 -3
0 -10 -2 -10 -6 0 -2 6 -11 12 -20 12 -16 0 -67 26 -96 49 -9 8 -20 11 -24 8
-3 -4 -17 0 -31 9 -13 9 -21 11 -18 5 5 -7 -7 -11 -36 -11 -30 0 -55 -8 -80
-25 -20 -14 -47 -25 -60 -25 -34 0 -99 20 -94 28 2 4 -3 9 -12 10 -143 18
-178 18 -199 5 -13 -8 -24 -10 -27 -4 -9 15 4 41 23 42 9 1 5 4 -9 8 -18 5
-21 8 -10 12 22 9 80 -10 76 -24 -1 -6 -1 -9 1 -4 3 4 8 5 13 2 4 -2 22 2 39
11 32 16 48 14 37 -4 -3 -6 -15 -8 -26 -5 -11 3 -20 1 -20 -5 0 -11 75 -10 86
1 4 4 2 7 -4 7 -7 0 -12 4 -12 9 0 5 10 7 22 3 15 -3 19 -2 14 7 -4 6 -4 11 1
10 20 -3 34 2 28 11 -8 14 8 13 22 -1 14 -14 156 -19 175 -7 9 6 5 8 -12 7
-14 -1 -47 -1 -75 1 l-50 3 40 7 c54 10 105 10 135 0z m-373 -27 c-8 -9 -20
-12 -26 -9 -19 12 -12 21 15 23 24 1 25 -1 11 -14z m-161 -22 c-3 -4 6 -18 19
-31 13 -13 22 -27 19 -31 -3 -5 8 -6 23 -3 23 5 29 2 30 -14 1 -13 -4 -19 -15
-17 -9 1 -12 0 -6 -2 15 -5 24 -52 12 -59 -5 -3 -7 -12 -4 -20 3 -8 1 -14 -4
-14 -10 0 -25 -39 -22 -57 2 -7 -2 -13 -8 -13 -6 0 -10 -6 -8 -12 4 -20 -25
-58 -44 -58 -10 0 -18 -4 -18 -10 0 -5 7 -10 15 -10 12 0 13 -9 8 -47 -3 -26
-12 -58 -19 -72 -7 -13 -11 -28 -8 -33 3 -4 1 -8 -4 -8 -4 0 -7 -16 -6 -35 2
-19 -1 -37 -6 -40 -5 -3 -7 -12 -3 -20 3 -8 2 -23 -2 -32 -13 -30 -14 -44 -4
-70 5 -14 6 -30 2 -36 -4 -7 -8 -27 -9 -46 -1 -18 -6 -36 -10 -40 -10 -6 -13
-37 -14 -113 -1 -27 -4 -48 -8 -48 -4 0 -6 -37 -4 -82 2 -46 4 -112 6 -148 1
-36 6 -75 10 -87 4 -13 3 -23 -2 -23 -5 0 -7 -10 -5 -23 4 -21 1 -23 -27 -21
-57 4 -100 15 -100 25 0 15 -43 -1 -57 -21 -9 -13 -28 -17 -80 -17 -37 -1 -80
-4 -95 -8 -31 -8 -35 -3 -42 60 -2 22 -7 58 -11 80 -3 22 -8 60 -10 85 -5 63
-15 103 -29 115 -16 13 -29 48 -16 40 6 -3 10 -2 10 4 0 5 -4 12 -9 16 -5 3
-8 23 -6 45 3 35 1 41 -20 46 -27 7 -48 -2 -40 -17 4 -5 3 -9 -1 -9 -11 0 -44
32 -44 42 0 5 -11 24 -25 42 -14 18 -25 36 -25 39 0 3 -16 22 -37 42 -20 19
-33 35 -29 35 4 0 -4 15 -18 33 -15 19 -26 46 -26 60 0 14 -4 29 -10 32 -5 3
-10 1 -10 -6 0 -8 -5 -8 -16 2 -9 7 -12 15 -7 16 10 4 -58 83 -70 83 -15 0
-47 36 -47 53 0 17 -22 47 -34 47 -3 0 -6 -7 -6 -15 0 -9 -6 -12 -16 -8 -9 3
-20 0 -25 -8 -7 -11 -9 -11 -9 3 0 10 -10 23 -22 29 -36 19 -50 46 -24 46 8 0
12 -7 9 -16 -4 -14 -3 -14 5 -1 6 8 9 18 6 22 -3 4 0 17 6 28 8 15 8 20 -2 20
-7 0 -21 7 -31 14 -16 12 -15 14 9 14 19 0 22 -3 13 -10 -10 -6 -3 -8 21 -7
48 4 92 -10 86 -27 -3 -8 0 -11 10 -7 13 5 13 8 -2 24 -9 11 -24 19 -31 19
-17 0 -13 22 5 28 7 2 12 -3 12 -12 0 -18 8 -20 30 -6 13 9 13 10 0 11 -8 0
14 9 50 18 43 11 64 21 62 30 -2 9 3 11 14 7 10 -4 21 -1 25 5 4 7 28 12 53
12 25 -1 44 3 41 7 -6 10 34 34 42 26 3 -3 11 1 17 8 6 8 35 17 65 20 66 7 78
16 25 17 l-39 2 40 8 c22 4 56 11 75 14 19 4 44 10 55 15 28 13 110 22 182 20
34 0 64 3 67 9 3 5 -4 7 -16 5 -21 -4 -22 -4 -3 5 11 5 57 10 102 10 72 1 85
4 95 21 7 11 16 20 21 20 4 0 6 -4 3 -9z m1072 2 c-16 -2 -40 -2 -55 0 -16 2
-3 4 27 4 30 0 43 -2 28 -4z m-1361 -39 c-3 -3 -12 -4 -19 -1 -8 3 -5 6 6 6
11 1 17 -2 13 -5z m418 -42 c-3 -3 -11 0 -18 7 -9 10 -8 11 6 5 10 -3 15 -9
12 -12z m-1028 -158 c-3 -3 -12 -4 -19 -1 -8 3 -5 6 6 6 11 1 17 -2 13 -5z
m-347 -58 c0 -2 -7 -7 -16 -10 -8 -3 -12 -2 -9 4 6 10 25 14 25 6z m90 -15 c0
-5 -7 -12 -16 -15 -9 -3 -14 -12 -11 -19 3 -8 -1 -14 -9 -14 -7 0 -10 5 -7 10
4 6 -1 8 -11 4 -10 -4 -15 -3 -11 3 3 6 13 10 21 10 9 0 12 5 8 12 -4 7 -3 8
4 4 7 -4 12 -2 12 3 0 6 5 11 10 11 6 0 10 -4 10 -9z m-80 -39 c3 -2 -6 -1
-20 3 -14 4 -32 14 -40 22 -11 10 -5 9 20 -3 19 -9 37 -19 40 -22z m125 18 c3
-6 -1 -7 -9 -4 -18 7 -21 14 -7 14 6 0 13 -4 16 -10z m1455 -286 c-11 -12 -11
-15 0 -12 9 2 18 -11 25 -37 10 -40 72 -128 111 -157 11 -9 35 -19 54 -21 35
-6 51 -22 43 -44 -3 -7 -1 -13 5 -13 5 0 12 -9 15 -21 5 -17 3 -18 -10 -7 -15
12 -15 11 -3 -12 22 -40 49 -123 50 -151 0 -22 -7 -28 -41 -38 -58 -18 -336
-18 -352 -1 -7 7 -7 10 -1 7 8 -5 10 8 8 39 -3 33 0 44 9 41 16 -5 40 20 32
33 -4 6 -4 19 0 28 10 24 16 104 15 195 -1 48 2 77 9 77 7 0 7 8 1 24 -5 15
-5 27 3 35 6 6 8 11 4 11 -4 0 -3 9 3 20 6 11 16 20 22 20 7 0 6 -6 -2 -16z
m-2167 -111 c-21 -33 -34 -44 -45 -37 -4 3 -8 0 -8 -5 0 -6 5 -11 10 -11 6 0
10 -8 9 -17 0 -11 -3 -13 -6 -5 -2 6 -9 10 -14 6 -5 -3 -9 0 -9 7 0 7 -3 9 -6
6 -4 -4 -1 -13 6 -22 7 -8 10 -15 6 -15 -4 0 1 -11 10 -25 10 -15 12 -25 5
-25 -6 0 -11 -7 -11 -15 0 -9 -12 -27 -27 -40 l-28 -23 20 -23 c18 -20 18 -22
2 -16 -16 6 -17 5 -4 -13 17 -25 11 -61 -13 -88 -11 -11 -16 -23 -12 -27 4 -4
-3 -4 -15 -1 -20 6 -22 2 -29 -40 -4 -27 -3 -49 3 -53 19 -12 38 -221 21 -221
-5 0 -8 -5 -8 -11 0 -5 5 -7 12 -3 8 5 9 2 5 -9 -3 -10 -2 -17 4 -17 6 0 7 -5
3 -12 -4 -6 -6 -49 -5 -95 1 -76 0 -84 -16 -82 -10 1 -26 -1 -36 -6 -10 -4
-30 -5 -45 -2 -15 3 -64 0 -109 -7 -46 -7 -83 -8 -83 -4 0 4 -5 8 -11 8 -6 0
-8 -9 -4 -20 5 -15 0 -22 -18 -29 -28 -11 -43 -41 -25 -52 8 -5 2 -10 -18 -15
l-29 -8 25 -6 25 -7 -27 -11 c-31 -13 -35 -24 -13 -42 16 -13 17 -130 1 -130
-4 0 -6 -6 -3 -14 3 -7 0 -24 -7 -37 -6 -13 -11 -55 -10 -94 2 -106 2 -107 22
-101 9 3 24 1 32 -4 12 -8 12 -10 -3 -16 -9 -3 -15 -10 -12 -14 4 -6 11 -102
17 -215 0 -5 -5 -41 -11 -79 -7 -37 -11 -104 -10 -147 1 -48 -3 -84 -10 -93
-7 -9 -8 -17 -2 -20 5 -3 7 -15 4 -25 -3 -11 2 -34 10 -51 12 -22 13 -39 6
-62 -5 -20 -5 -36 1 -42 5 -5 6 -21 3 -36 -3 -15 0 -36 5 -46 7 -14 6 -25 -4
-38 -9 -13 -10 -23 -4 -31 5 -6 16 -36 24 -67 8 -31 20 -66 26 -77 7 -14 8
-27 1 -40 -6 -10 -8 -34 -5 -52 19 -125 26 -199 29 -304 1 -66 4 -120 5 -120
2 0 3 -48 4 -106 1 -71 6 -112 15 -122 7 -9 10 -21 7 -26 -4 -6 -8 -33 -10
-60 -1 -30 -10 -58 -19 -69 -9 -10 -17 -26 -17 -34 0 -9 -8 -19 -17 -22 -14
-6 -15 -9 -3 -16 11 -7 12 -11 0 -25 -10 -13 -15 -13 -21 -3 -7 11 -9 11 -9 0
0 -7 -12 -25 -26 -39 -18 -18 -22 -29 -15 -36 16 -16 13 -37 -4 -37 -16 0 -34
-29 -28 -46 2 -7 -7 -29 -21 -49 -14 -21 -24 -41 -21 -45 3 -4 -2 -13 -9 -20
-8 -6 -18 -25 -21 -41 -4 -16 -11 -29 -16 -29 -5 0 -9 -9 -9 -20 0 -12 -9 -40
-20 -62 -11 -23 -20 -45 -20 -50 0 -4 -9 -17 -19 -27 -11 -11 -25 -38 -31 -59
-5 -22 -19 -51 -30 -64 -11 -14 -16 -28 -13 -32 4 -3 1 -16 -4 -29 -6 -12 -19
-45 -29 -74 -10 -28 -22 -51 -27 -50 -13 3 -29 -55 -18 -66 10 -10 2 -47 -10
-47 -5 0 -9 -6 -9 -14 0 -8 -6 -17 -12 -20 -10 -5 -10 -7 0 -12 6 -3 12 -10
12 -15 0 -6 -4 -7 -10 -4 -6 4 -7 -1 -3 -11 5 -14 3 -16 -12 -11 -15 6 -16 5
-6 -7 8 -10 9 -16 1 -21 -5 -3 -10 -1 -10 4 0 7 -7 7 -20 -1 -11 -7 -19 -17
-17 -22 2 -5 -10 -23 -25 -40 -15 -16 -37 -50 -49 -75 -16 -34 -23 -41 -30
-30 -6 10 -9 5 -9 -17 0 -18 -8 -38 -20 -49 -15 -14 -17 -21 -8 -26 8 -5 3
-10 -15 -14 -28 -7 -35 -19 -16 -30 7 -5 5 -13 -6 -25 -9 -10 -15 -21 -14 -26
4 -17 -13 -44 -28 -44 -9 0 -13 -6 -9 -15 3 -8 1 -15 -4 -15 -10 0 -90 -158
-90 -177 0 -6 5 -13 10 -15 6 -2 2 -24 -9 -56 -11 -28 -15 -52 -9 -52 5 0 2
-7 -6 -16 -9 -8 -14 -19 -11 -24 3 -5 1 -11 -4 -15 -6 -3 -8 -12 -5 -19 3 -8
0 -17 -6 -21 -9 -6 -9 -10 1 -16 11 -7 11 -11 1 -17 -7 -5 -11 -19 -10 -33 2
-15 -2 -23 -9 -22 -7 2 -13 -3 -13 -11 0 -8 -5 -27 -12 -43 -6 -15 -10 -35 -9
-43 3 -12 -1 -12 -16 3 -11 9 -23 14 -26 10 -12 -11 -8 -21 9 -25 14 -3 14 -6
-3 -24 -10 -12 -26 -20 -36 -18 -30 4 -31 13 -3 20 21 5 24 9 15 20 -15 18
-28 18 -51 -3 -25 -23 -24 -56 2 -48 16 5 19 3 13 -12 -4 -10 -11 -21 -17 -25
-8 -5 -7 -8 1 -8 7 0 17 -9 23 -20 9 -16 8 -20 -5 -20 -9 0 -14 4 -11 8 3 5
-1 9 -9 9 -22 0 -18 -13 8 -24 l22 -11 -27 -11 c-27 -10 -39 -31 -17 -31 6 0
8 -11 5 -27 -3 -16 1 -39 8 -52 12 -21 12 -28 -1 -48 -10 -15 -11 -23 -4 -23
6 0 11 5 11 11 0 5 5 7 11 4 6 -4 8 -13 5 -21 -3 -8 -2 -24 3 -37 6 -15 4 -26
-4 -34 -10 -9 -13 -7 -14 10 -1 42 -4 57 -13 57 -11 0 -10 -7 4 -33 10 -20 10
-21 -6 -8 -10 8 -15 23 -12 33 3 13 -3 23 -20 30 -14 6 -20 14 -15 17 11 7 2
61 -10 61 -5 0 -9 -8 -9 -17 0 -15 -2 -16 -10 -3 -6 10 -6 16 1 19 5 1 2 9 -8
17 -16 13 -15 13 9 5 20 -8 28 -7 32 5 3 9 1 12 -4 9 -6 -3 -10 -2 -10 3 0 16
-35 20 -48 5 -7 -7 -18 -13 -25 -13 -7 0 -5 5 4 10 9 5 16 23 16 42 1 18 -1
27 -4 21 -3 -7 -11 -13 -20 -13 -12 0 -12 2 1 16 18 18 22 39 5 28 -8 -4 -9 1
-4 17 7 22 6 23 -7 6 -13 -17 -15 -17 -27 -3 -12 14 -12 16 3 10 24 -9 20 4
-10 31 -16 15 -21 25 -13 25 8 0 4 6 -8 15 -20 14 -41 75 -32 91 2 3 -4 10
-14 15 -9 6 -17 18 -17 29 0 10 -6 25 -13 32 -7 7 -18 32 -25 56 -7 24 -20 46
-28 49 -13 5 -13 8 2 24 11 12 13 19 5 19 -6 0 -14 8 -18 18 -15 45 -46 102
-55 102 -6 0 -6 6 2 15 14 16 6 35 -16 35 -8 0 -14 10 -14 26 0 14 -5 34 -10
45 -8 13 -7 19 0 19 6 0 4 10 -5 23 -8 13 -16 38 -18 55 -2 18 -9 38 -15 44
-6 6 -8 17 -5 24 3 8 -1 14 -11 14 -16 0 -20 9 -16 48 1 12 -4 22 -10 22 -8 0
-11 15 -8 45 2 31 -1 45 -9 45 -9 0 -13 17 -13 54 0 38 -6 61 -19 77 -18 22
-18 23 1 43 19 21 19 21 -1 38 -16 12 -21 28 -21 61 0 25 -4 47 -10 49 -5 2
-11 29 -13 60 -2 32 -6 61 -10 65 -4 3 -7 0 -7 -8 0 -11 -2 -11 -10 1 -14 22
-12 40 4 40 11 0 12 10 4 48 -5 26 -6 62 -3 80 4 19 2 32 -5 32 -5 0 -10 15
-10 33 0 67 -25 287 -32 287 -4 0 -8 36 -8 80 0 83 19 115 22 38 1 -24 5 -2 9
47 8 104 35 325 45 373 3 17 10 32 15 32 5 0 9 34 9 75 0 69 2 75 21 75 13 0
18 4 13 12 -11 18 -12 48 -2 54 4 3 8 29 8 58 0 28 4 56 8 62 5 5 15 43 21 84
7 41 17 84 22 95 5 11 8 27 7 35 -1 8 2 37 6 65 7 38 11 45 16 30 6 -16 9 -11
14 23 4 23 12 42 17 42 5 0 9 9 9 19 0 10 6 21 14 24 8 3 14 18 14 34 0 15 9
45 20 65 12 21 19 45 16 53 -4 8 -2 15 3 15 6 0 10 14 11 30 0 17 10 42 22 57
22 28 60 108 60 126 0 6 7 19 16 28 9 10 16 30 16 44 1 15 6 25 15 25 8 0 13
6 10 13 -7 18 12 47 31 48 15 0 14 1 -2 8 -19 7 -19 8 1 27 11 10 28 41 38 67
11 29 27 52 39 57 12 5 15 9 9 9 -18 1 -16 31 2 31 15 0 58 86 50 100 -3 4 2
11 11 14 8 3 12 11 9 16 -4 6 -1 18 6 26 10 13 10 17 -2 25 -11 7 -11 9 4 9 9
0 23 12 30 28 16 36 29 50 45 44 7 -2 20 13 30 37 9 22 23 41 30 41 6 0 12 6
12 14 0 8 6 16 14 19 16 6 59 114 51 127 -3 5 -1 11 5 15 5 3 10 1 10 -4 0
-22 16 -9 33 28 10 21 36 56 56 78 21 22 46 58 57 81 10 23 25 42 32 42 6 0
12 4 12 9 0 5 16 27 36 48 20 21 44 49 54 63 10 14 34 42 54 63 20 21 36 43
36 48 0 5 7 9 15 9 8 0 29 19 46 43 17 23 35 41 40 40 5 -2 9 4 9 12 0 9 7 18
15 21 8 3 17 16 21 27 4 12 14 33 22 46 15 22 16 22 23 5 6 -16 9 -14 20 14
10 23 20 32 36 32 14 0 23 6 23 15 0 8 5 15 10 15 13 0 120 108 120 121 0 5 5
9 11 9 12 0 143 105 173 139 11 11 25 21 33 21 7 0 13 6 13 13 0 7 16 21 35
30 19 9 35 21 35 27 0 5 14 10 30 10 17 0 30 4 30 10 0 5 -7 7 -15 4 -8 -4
-15 -1 -15 4 0 13 38 27 63 23 10 -1 17 4 17 13 0 9 5 16 12 16 6 0 8 3 5 6
-10 10 12 44 29 44 8 0 12 -5 9 -10 -4 -6 -11 -8 -16 -5 -5 4 -9 1 -9 -4 0
-18 30 -12 37 7 6 14 22 31 31 32 1 0 -5 -12 -15 -27z m-98 -20 c9 4 14 3 10
-3 -3 -6 -14 -10 -23 -10 -15 0 -15 -2 -2 -10 13 -8 13 -10 -1 -10 -11 0 -16
9 -16 26 0 16 2 22 7 14 4 -7 15 -10 25 -7z m2405 7 c0 -5 -2 -10 -4 -10 -3 0
-8 5 -11 10 -3 6 -1 10 4 10 6 0 11 -4 11 -10z m-1942 -192 c7 -7 12 -18 12
-26 0 -8 11 -28 25 -44 14 -16 23 -34 19 -39 -3 -5 -1 -9 5 -9 6 0 8 -7 5 -15
-4 -8 -1 -15 5 -15 16 0 53 -86 57 -130 2 -19 5 -45 8 -57 4 -19 0 -23 -19
-23 -14 0 -25 7 -27 18 -3 14 -5 12 -10 -6 -5 -19 -1 -26 28 -39 32 -16 33
-17 16 -32 -33 -29 -65 -43 -116 -51 -28 -4 -59 -10 -68 -14 -12 -6 -17 -2
-20 15 -3 21 -4 22 -19 6 -29 -29 -30 -20 -14 128 3 28 20 90 37 139 24 69 27
90 17 96 -10 7 -9 14 5 35 10 15 15 29 12 32 -7 7 12 43 22 43 5 0 13 -5 20
-12z m247 -338 c-3 -5 -12 -10 -18 -10 -7 0 -6 4 3 10 19 12 23 12 15 0z m975
-104 c0 -3 -4 -8 -10 -11 -5 -3 -10 -1 -10 4 0 6 5 11 10 11 6 0 10 -2 10 -4z
m1255 -67 c11 -16 1 -19 -13 -3 -7 8 -8 14 -3 14 5 0 13 -5 16 -11z m-600 -9
c3 -5 1 -10 -4 -10 -6 0 -11 5 -11 10 0 6 2 10 4 10 3 0 8 -4 11 -10z m-830
-150 c-3 -5 -12 -10 -18 -10 -7 0 -6 4 3 10 19 12 23 12 15 0z m52 -85 c0 -20
-4 -19 -17 5 -8 15 -8 18 3 14 8 -3 14 -11 14 -19z m758 -185 c3 -5 1 -10 -4
-10 -6 0 -11 5 -11 10 0 6 2 10 4 10 3 0 8 -4 11 -10z m75 6 c0 -2 -9 -6 -20
-9 -11 -3 -18 -1 -14 4 5 9 34 13 34 5z m230 -6 c0 -5 -4 -10 -10 -10 -5 0
-10 5 -10 10 0 6 5 10 10 10 6 0 10 -4 10 -10z m-646 -81 c-8 -14 -31 -11 -37
4 -4 10 2 13 19 9 13 -2 21 -8 18 -13z m83 4 c6 -18 -24 -23 -44 -7 -10 9 -13
13 -6 10 6 -4 15 -2 18 4 8 13 27 8 32 -7z m44 -206 c-1 -12 -15 -9 -19 4 -3
6 1 10 8 8 6 -3 11 -8 11 -12z m349 -104 c-27 -10 -40 -25 -32 -37 5 -6 7 -17
6 -23 -1 -7 -2 -18 -3 -24 -1 -8 -5 -8 -15 0 -10 9 -16 9 -21 1 -4 -7 2 -14
13 -17 26 -6 35 -29 22 -53 -15 -27 -12 -34 6 -16 8 9 26 16 38 16 27 0 59 29
35 31 -8 1 -17 1 -20 1 -4 -1 -15 8 -25 20 -17 19 -17 21 -1 15 11 -4 17 -1
17 8 0 8 -7 15 -16 15 -8 0 -12 5 -9 11 4 6 13 8 21 5 8 -3 25 -1 38 4 28 10
40 2 25 -17 -9 -10 -6 -13 15 -14 35 -2 39 -3 55 -13 8 -5 16 -4 22 5 6 11 9
8 9 -8 0 -28 -14 -37 -30 -18 -16 20 -44 20 -36 0 4 -11 -1 -15 -17 -15 -21
-1 -22 -1 -2 -12 11 -7 31 -13 44 -14 13 -2 31 -11 40 -20 10 -11 11 -14 2 -9
-18 10 -29 -10 -23 -41 5 -27 22 -33 22 -7 0 14 3 13 16 -6 13 -18 18 -20 26
-10 8 11 9 11 5 -1 -2 -8 -11 -14 -21 -12 -23 4 -20 -20 6 -53 l22 -28 -26 6
c-17 4 -30 3 -34 -5 -5 -8 -2 -9 10 -5 13 5 17 3 13 -7 -3 -8 1 -20 9 -27 13
-10 17 -10 25 2 7 11 9 11 9 -3 0 -10 -4 -18 -9 -18 -5 0 -11 -14 -13 -31 -3
-21 1 -34 14 -43 21 -15 14 -26 -16 -27 -20 0 -20 -1 -2 -8 12 -5 20 -18 21
-35 1 -25 -1 -26 -12 -10 -7 10 -13 21 -13 26 0 4 -4 8 -9 8 -13 0 -31 -58
-24 -77 4 -11 3 -14 -5 -9 -8 4 -12 0 -13 -11 0 -10 -3 -27 -5 -38 -3 -11 -6
-40 -7 -65 -2 -25 -8 -44 -13 -43 -6 1 -11 -5 -11 -13 0 -18 -1 -19 36 16 39
38 53 31 47 -21 -4 -29 -1 -39 9 -39 12 0 11 -4 -3 -20 -13 -16 -18 -18 -20
-6 -4 18 -32 30 -32 13 0 -7 7 -23 16 -35 9 -13 11 -22 4 -22 -6 0 -15 -11
-22 -25 -6 -13 -14 -22 -18 -20 -5 3 -11 -2 -14 -11 -3 -8 -2 -12 4 -9 6 3 10
2 10 -3 0 -16 -33 -24 -42 -10 -8 10 -11 10 -15 1 -2 -7 -13 -13 -22 -13 -15
0 -19 11 -24 53 -3 28 -4 71 -2 95 3 27 0 42 -7 42 -6 0 -3 8 6 19 12 13 14
21 6 26 -6 4 -8 15 -5 25 3 10 1 21 -5 25 -8 5 -8 10 0 20 7 9 8 15 1 19 -7 5
-7 15 -1 32 14 37 12 51 -9 71 -17 16 -19 25 -11 58 5 22 8 48 7 59 -1 10 5
20 13 21 25 5 70 24 70 30 0 15 -28 33 -40 25 -7 -4 -28 -2 -46 6 -20 9 -34
10 -34 4 0 -5 -5 -10 -11 -10 -6 0 -8 9 -4 23 6 20 6 20 -6 6 -16 -19 -89 -35
-89 -20 0 6 7 14 16 19 9 5 14 14 10 21 -10 15 -37 14 -33 -1 1 -7 -4 -12 -12
-10 -9 2 -11 -3 -7 -13 4 -11 2 -14 -6 -9 -8 5 -9 2 -5 -10 5 -13 3 -15 -11
-7 -10 5 -32 8 -50 7 -27 -2 -33 1 -29 15 4 14 -1 17 -24 17 -18 -1 -29 -6
-29 -16 0 -9 -7 -13 -20 -9 -12 3 -20 0 -20 -7 0 -9 -14 -11 -52 -5 -29 4 -72
5 -95 2 -41 -5 -43 -4 -43 20 0 14 6 28 13 30 6 3 2 6 -11 6 -24 1 -42 33 -35
62 3 9 17 19 31 23 15 3 34 10 42 15 13 9 13 12 -3 28 -16 17 -16 18 15 33 17
8 33 21 34 28 1 7 0 9 -2 4 -6 -11 -52 -3 -60 9 -3 5 5 9 17 9 17 0 19 3 10
14 -10 11 -9 14 1 12 7 -1 19 -5 26 -10 10 -6 11 -2 7 17 -7 25 -6 25 49 24
31 -1 56 -6 56 -12 0 -7 3 -7 8 0 4 6 12 11 18 12 10 2 94 4 124 3 8 -1 41 1
72 4 32 3 60 1 63 -4 3 -5 15 0 25 10 11 11 28 20 38 19 13 0 14 -2 2 -6z
m115 -3 c4 -6 -2 -9 -14 -7 -29 4 -39 17 -13 17 11 0 24 -5 27 -10z m655 -31
c0 -5 -4 -9 -10 -9 -5 0 -10 7 -10 16 0 8 5 12 10 9 6 -3 10 -10 10 -16z
m-1300 -3 c0 -2 -11 -6 -25 -8 -13 -3 -22 -1 -19 3 5 9 44 13 44 5z m660 -8
c0 -4 -4 -8 -9 -8 -6 0 -12 4 -15 8 -3 5 1 9 9 9 8 0 15 -4 15 -9z m118 -22
c2 -16 -2 -34 -8 -40 -9 -8 -11 -5 -5 13 5 16 4 21 -4 17 -7 -5 -8 -1 -4 9 3
10 0 21 -8 27 -11 7 -9 8 6 6 14 -2 21 -12 23 -32z m-1338 -16 c-8 -5 -17 -7
-19 -4 -3 3 1 9 9 14 8 5 17 7 19 4 3 -3 -1 -9 -9 -14z m81 -11 c-9 -22 -10
-22 -10 -3 -1 11 2 24 6 27 12 12 14 0 4 -24z m-146 1 c-3 -5 -10 -10 -16 -10
-5 0 -9 5 -9 10 0 6 7 10 16 10 8 0 12 -4 9 -10z m-243 -49 c2 -15 -2 -25 -12
-26 -8 -2 -24 -6 -35 -10 -16 -6 -17 -5 -5 4 11 8 7 9 -19 5 -29 -6 -33 -4
-29 12 2 12 12 19 29 20 14 1 34 6 45 12 22 12 21 13 26 -17z m308 19 c0 -5
-2 -10 -4 -10 -3 0 -8 5 -11 10 -3 6 -1 10 4 10 6 0 11 -4 11 -10z m-642 -30
c-7 -10 -14 -18 -15 -16 -6 6 9 36 18 36 5 0 4 -9 -3 -20z m417 -10 c3 -5 -3
-10 -14 -10 -11 0 -22 -4 -26 -10 -3 -5 -12 -7 -21 -3 -11 4 -12 9 -3 19 13
16 55 19 64 4z m775 0 c0 -5 -4 -10 -10 -10 -5 0 -10 5 -10 10 0 6 5 10 10 10
6 0 10 -4 10 -10z m-1133 -6 c-3 -3 -12 -4 -19 -1 -8 3 -5 6 6 6 11 1 17 -2
13 -5z m1923 -4 c0 -5 -5 -10 -11 -10 -5 0 -7 5 -4 10 3 6 8 10 11 10 2 0 4
-4 4 -10z m-1830 -10 c0 -5 -4 -10 -9 -10 -5 0 -18 -3 -28 -7 -16 -6 -16 -5
-4 10 15 19 41 23 41 7z m171 -40 c5 0 9 -7 9 -16 0 -11 6 -15 20 -11 11 3 23
1 26 -4 7 -12 51 -12 58 0 4 5 1 11 -6 13 -7 3 10 4 37 4 46 -1 50 1 48 22 -2
12 2 22 8 22 8 0 10 -12 6 -34 -5 -31 -3 -34 21 -39 15 -3 30 -2 34 1 4 4 28
6 53 4 38 -3 45 -7 47 -26 2 -36 3 -41 13 -56 5 -8 10 -48 10 -87 0 -62 -3
-73 -17 -73 -9 0 -20 -5 -24 -12 -5 -8 -2 -9 9 -5 20 8 34 -12 17 -23 -9 -6
-12 -29 -11 -77 4 -123 6 -134 21 -143 12 -8 12 -12 2 -18 -10 -7 -10 -11 2
-22 9 -7 13 -16 10 -21 -3 -5 0 -18 6 -29 9 -18 8 -20 -17 -21 -15 -1 -34 -1
-40 0 -7 1 -13 -3 -13 -9 0 -5 14 -10 30 -10 23 0 33 -6 39 -22 5 -13 5 -24 0
-26 -5 -2 -9 -13 -9 -25 0 -13 -14 -33 -32 -49 l-33 -26 40 3 c37 3 38 3 21
-11 -38 -27 -62 -17 -56 25 1 9 -4 12 -15 7 -9 -3 -28 -6 -41 -6 -14 0 -22 -4
-19 -10 3 -5 0 -7 -8 -4 -15 6 -12 38 5 61 13 16 -15 46 -29 32 -6 -6 -8 18
-6 70 3 48 0 82 -6 86 -7 4 -5 15 6 31 11 17 18 21 23 14 5 -9 10 -9 14 -1 4
5 -2 19 -13 30 -11 11 -20 35 -21 58 -4 73 -1 83 20 83 24 0 25 8 3 32 -9 10
-11 18 -6 18 14 0 24 26 17 44 -3 9 -12 12 -22 9 -11 -5 -14 -2 -9 9 3 10 -1
19 -11 23 -21 9 -147 9 -161 1 -11 -7 -64 -8 -161 -2 -14 0 -31 7 -39 15 -12
11 -16 11 -26 -2 -8 -11 -15 -13 -29 -5 -14 8 -21 7 -27 -3 -6 -10 -9 -11 -9
-1 0 6 -8 12 -17 12 -15 0 -14 2 3 16 16 13 16 15 2 10 -10 -3 -18 -1 -18 5 0
6 -7 3 -16 -5 -22 -22 -33 -20 -44 10 -16 41 -13 64 8 57 15 -6 15 -5 3 10 -8
10 -11 20 -7 24 3 3 6 0 6 -8 0 -8 3 -10 8 -4 11 16 69 45 75 39 3 -4 39 -8
80 -10 41 -2 79 -4 84 -6 18 -5 83 14 78 23 -4 5 -11 6 -17 3 -6 -4 -8 -2 -5
3 4 6 0 16 -8 23 -8 7 -15 19 -15 27 0 12 3 12 16 -1 8 -9 20 -16 25 -16z
m-54 6 c-3 -10 -68 -28 -75 -21 -5 5 50 31 66 31 7 1 11 -4 9 -10z m-1203 -77
c-3 -5 -10 -7 -15 -3 -5 3 -7 10 -3 15 3 5 10 7 15 3 5 -3 7 -10 3 -15z m2096
-29 c0 -5 -2 -10 -4 -10 -3 0 -8 5 -11 10 -3 6 -1 10 4 10 6 0 11 -4 11 -10z
m-1600 -50 c0 -5 -4 -10 -10 -10 -5 0 -10 5 -10 10 0 6 5 10 10 10 6 0 10 -4
10 -10z m2144 -56 c9 -24 2 -26 -12 -4 -7 11 -8 20 -3 20 5 0 12 -7 15 -16z
m-194 -15 c0 -5 4 -8 9 -4 5 3 13 0 16 -6 4 -5 14 -8 22 -5 11 5 13 2 9 -10
-4 -10 -2 -14 6 -11 7 2 22 0 32 -6 15 -7 18 -6 13 6 -4 11 -2 14 9 10 10 -4
17 2 21 16 6 25 23 18 23 -10 0 -12 -7 -19 -20 -19 -13 0 -18 -5 -14 -15 4 -8
11 -12 17 -8 6 4 8 -2 4 -18 -4 -13 -7 -40 -7 -58 0 -27 -3 -32 -12 -23 -18
18 -37 14 -35 -8 1 -11 6 -20 11 -20 5 0 6 -3 3 -6 -3 -4 -2 -15 4 -26 7 -13
16 -17 30 -13 13 4 19 2 19 -9 0 -8 -3 -17 -8 -20 -4 -2 -7 -25 -6 -50 1 -38
-1 -44 -12 -35 -10 8 -11 15 -2 29 15 23 -1 64 -32 80 -17 9 -20 8 -21 -12 -1
-13 -2 -30 -3 -38 -1 -8 4 -22 10 -30 13 -17 24 -80 14 -80 -4 0 -6 -30 -5
-66 2 -75 -16 -107 -54 -97 -12 3 -21 1 -21 -3 0 -11 -160 -2 -178 10 -7 4
-20 2 -28 -5 -13 -11 -17 -10 -25 3 -5 10 -17 14 -29 11 -29 -8 -70 23 -70 52
0 13 -4 27 -10 30 -5 3 -10 14 -9 23 0 14 2 14 8 -2 7 -19 8 -19 13 2 4 12 0
26 -8 33 -21 17 -14 147 7 133 5 -3 9 0 9 5 0 10 -21 16 -42 12 -5 0 -8 6 -8
14 0 8 6 15 13 16 10 0 10 2 0 6 -7 2 -13 18 -13 33 0 16 -4 32 -10 35 -16 10
-12 23 7 21 10 0 18 6 19 14 0 8 2 18 4 23 5 13 7 26 9 43 1 11 7 13 24 8 12
-4 25 -11 28 -17 4 -5 11 -2 17 9 7 13 21 17 61 17 47 -1 55 3 53 28 -1 3 10
4 23 1 15 -2 25 0 25 7 0 6 19 11 45 11 25 0 45 -5 45 -11z m95 -9 c-3 -5 -10
-10 -16 -10 -5 0 -9 5 -9 10 0 6 7 10 16 10 8 0 12 -4 9 -10z m-448 -52 c-3
-8 -6 -5 -6 6 -1 11 2 17 5 13 3 -3 4 -12 1 -19z m-670 -65 c-3 -10 -5 -4 -5
12 0 17 2 24 5 18 2 -7 2 -21 0 -30z m502 -22 c-15 -5 -22 6 -14 19 6 9 10 9
16 -1 5 -8 4 -15 -2 -18z m-899 4 c52 1 121 5 152 9 l57 8 -5 -34 c-4 -24 -1
-39 10 -50 14 -14 13 -16 -6 -21 -16 -5 -19 -9 -11 -19 6 -7 11 -28 11 -46 0
-17 7 -39 15 -47 13 -12 15 -11 20 13 10 52 18 86 23 94 3 4 0 8 -5 8 -6 0
-11 12 -11 26 0 14 4 23 10 19 6 -3 10 3 10 14 0 12 -5 21 -12 21 -6 0 -9 3
-6 6 4 3 15 1 26 -5 24 -13 36 -71 15 -71 -8 0 -11 -5 -8 -10 4 -6 11 -8 16
-5 14 9 25 -31 21 -70 -3 -23 -8 -32 -16 -28 -6 4 -5 -1 3 -10 7 -9 11 -23 8
-30 -3 -7 0 -61 7 -120 l12 -107 -23 15 c-13 9 -23 12 -23 9 0 -4 -9 1 -20 11
-15 14 -20 15 -20 4 -1 -10 -4 -9 -11 4 -13 23 -29 13 -29 -19 0 -24 25 -34
32 -12 3 7 14 9 32 4 23 -6 26 -9 15 -22 -8 -10 -21 -13 -42 -8 -24 5 -34 2
-49 -17 -12 -15 -21 -19 -24 -13 -3 8 -17 9 -41 3 -20 -4 -41 -5 -45 -3 -5 3
-15 1 -22 -5 -7 -6 -21 -8 -31 -5 -13 6 -14 9 -3 16 9 7 8 8 -6 4 -10 -4 -27
-4 -38 0 -15 4 -17 9 -7 20 9 11 8 14 -4 14 -8 0 -17 6 -20 13 -3 8 -11 6 -27
-8 -12 -11 -25 -18 -29 -17 -3 2 -14 8 -23 13 -19 10 -25 39 -8 39 6 0 10 5
10 10 0 6 -7 10 -15 10 -8 0 -15 5 -15 11 0 6 6 9 14 6 20 -8 28 19 10 34 -9
7 -14 23 -11 36 3 17 -4 30 -26 47 -28 22 -28 24 -10 30 15 5 20 14 18 39 -1
17 -5 40 -9 49 -4 10 -6 23 -3 30 2 7 -2 21 -11 30 -12 14 -12 20 -2 33 10 12
10 15 -1 15 -10 1 -9 4 4 14 9 7 17 18 17 24 0 6 12 7 33 3 17 -4 75 -6 127
-6z m1860 -85 c6 -11 8 -20 6 -20 -3 0 -10 9 -16 20 -6 11 -8 20 -6 20 3 0 10
-9 16 -20z m-1425 0 c3 -5 1 -10 -4 -10 -6 0 -11 5 -11 10 0 6 2 10 4 10 3 0
8 -4 11 -10z m1425 -46 c0 -8 -5 -12 -10 -9 -6 4 -7 11 -4 17 5 7 2 9 -7 6 -9
-4 -19 4 -26 18 l-11 24 29 -21 c16 -11 29 -27 29 -35z m-234 19 c-7 -7 -26 7
-26 19 0 6 6 6 15 -2 9 -7 13 -15 11 -17z m283 -106 c0 -9 -2 -8 -6 1 -2 6
-10 9 -15 6 -7 -4 -8 -2 -4 5 9 13 26 5 25 -12z m-339 -17 c0 -5 -4 -10 -9
-10 -6 0 -13 5 -16 10 -3 6 1 10 9 10 9 0 16 -4 16 -10z m287 -62 c-3 -8 -6
-5 -6 6 -1 11 2 17 5 13 3 -3 4 -12 1 -19z m-268 -66 c0 -24 -1 -25 -9 -7 -12
28 -12 47 0 40 6 -3 10 -18 9 -33z m73 -16 c-6 -11 -20 20 -21 44 0 8 5 4 13
-10 7 -14 10 -29 8 -34z m242 46 c3 -5 -1 -9 -9 -9 -8 0 -12 4 -9 9 3 4 7 8 9
8 2 0 6 -4 9 -8z m-1404 -162 c0 -5 -8 -10 -17 -10 -15 0 -16 2 -3 10 19 12
20 12 20 0z m-423 -87 c3 -8 -6 -10 -31 -6 -24 4 -36 2 -36 -6 0 -6 -7 -11
-15 -11 -8 0 -15 -4 -15 -10 0 -16 -27 -12 -34 5 -4 11 2 15 20 15 14 0 32 7
41 16 17 17 64 15 70 -3z m43 -5 c0 -6 -6 -5 -15 2 -8 7 -15 14 -15 16 0 2 7
1 15 -2 8 -4 15 -11 15 -16z m2450 -48 l17 -50 -40 0 c-38 0 -39 1 -24 18 10
11 17 35 17 57 0 47 8 41 30 -25z m-1662 -86 c-10 -10 -28 6 -28 24 0 15 1 15
17 -1 9 -9 14 -19 11 -23z m227 -114 c3 -6 -4 -10 -17 -10 -18 0 -20 2 -8 10
19 12 18 12 25 0z m-765 -24 c0 -3 -4 -8 -10 -11 -5 -3 -10 -1 -10 4 0 6 5 11
10 11 6 0 10 -2 10 -4z m118 -60 c-10 -7 -18 -18 -18 -25 0 -6 -7 -11 -15 -11
-8 0 -15 7 -15 16 0 8 5 12 10 9 6 -3 10 -2 10 4 0 8 15 15 40 20 3 0 -3 -6
-12 -13z m155 -6 c-13 -13 -52 -16 -53 -5 -1 11 40 24 53 17 5 -2 5 -8 0 -12z
m1207 -44 c0 -8 -4 -18 -10 -21 -5 -3 -10 -1 -10 5 0 12 -24 9 -64 -6 -9 -3
-16 -1 -16 5 0 10 49 28 83 30 9 1 17 -5 17 -13z m66 -1 c-19 -14 -36 -12 -36
6 0 5 12 9 28 9 26 -1 26 -1 8 -15z m77 8 c-7 -2 -21 -2 -30 0 -10 3 -4 5 12
5 17 0 24 -2 18 -5z m167 -4 c0 -3 -19 -9 -43 -12 -24 -3 -52 -9 -62 -13 -11
-4 -17 -4 -13 0 19 21 118 42 118 25z m-420 -17 c0 -8 -152 -42 -160 -35 -9 8
25 23 55 24 17 0 39 4 50 9 26 11 55 12 55 2z m245 -1 c-15 -13 -65 -23 -65
-12 0 5 15 12 33 14 17 2 34 5 37 5 2 1 0 -2 -5 -7z m-2418 -37 c-3 -3 -12 -4
-19 -1 -8 3 -5 6 6 6 11 1 17 -2 13 -5z m260 -60 c2 -7 -6 -10 -22 -7 -14 3
-25 10 -25 15 0 13 43 6 47 -8z m1343 -13 c0 -12 -48 -23 -63 -14 -7 5 1 10
23 14 19 4 36 7 38 8 1 0 2 -3 2 -8z m-223 -57 c-3 -3 -12 -4 -19 -1 -8 3 -5
6 6 6 11 1 17 -2 13 -5z m1683 -20 c0 -8 -5 -12 -10 -9 -6 4 -8 11 -5 16 9 14
15 11 15 -7z m-2508 -16 c-6 -6 -15 -8 -19 -4 -4 4 -1 11 7 16 19 12 27 3 12
-12z m400 -37 c11 -44 1 -49 -65 -37 -72 14 -111 32 -87 40 24 8 52 11 102 13
35 0 47 -3 50 -16z m1388 -46 c0 -9 -6 -12 -15 -9 -8 4 -12 10 -9 15 8 14 24
10 24 -6z m390 -25 c-8 -5 -19 -10 -25 -10 -5 0 -3 5 5 10 8 5 20 10 25 10 6
0 3 -5 -5 -10z m-104 -27 c-10 -10 -19 5 -10 18 6 11 8 11 12 0 2 -7 1 -15 -2
-18z m97 -27 c-17 -11 -91 -36 -107 -36 -4 0 -6 5 -4 11 5 14 98 46 116 41 9
-3 8 -8 -5 -16z m-968 -46 c-3 -5 -13 -10 -21 -10 -8 0 -14 5 -14 10 0 6 9 10
21 10 11 0 17 -4 14 -10z m280 -20 c3 -5 1 -10 -4 -10 -6 0 -11 5 -11 10 0 6
2 10 4 10 3 0 8 -4 11 -10z m-1575 -20 c-1 -19 -23 -33 -55 -34 -48 -1 -56 18
-13 30 36 11 68 13 68 4z m3836 -3 c8 3 14 -1 14 -10 0 -8 6 -17 13 -20 6 -2
9 -7 5 -11 -8 -9 -58 34 -57 48 0 7 3 6 5 -1 3 -7 12 -9 20 -6z m-1601 -17
c13 -14 19 -39 21 -78 2 -47 1 -53 -8 -34 -15 29 -28 28 -28 -3 0 -18 -5 -25
-19 -25 -11 0 -23 -5 -26 -11 -6 -9 -91 -7 -100 3 -2 2 -6 15 -10 31 -5 18 -3
27 5 27 6 0 8 5 4 11 -3 6 -3 14 2 18 5 3 14 15 20 26 6 11 20 20 30 20 10 0
22 8 26 18 10 24 60 22 83 -3z m1496 9 c21 -7 36 -16 33 -20 -3 -5 0 -9 6 -9
21 0 80 -45 80 -61 0 -9 6 -16 13 -15 6 0 12 -2 12 -6 0 -4 11 -15 24 -24 20
-14 22 -23 18 -56 -3 -26 0 -43 9 -52 8 -8 14 -23 14 -34 0 -11 7 -23 16 -26
9 -3 13 -13 10 -23 -2 -10 -7 -34 -10 -53 -4 -26 -4 -30 3 -15 9 18 10 17 10
-7 1 -24 13 -40 34 -44 4 -1 10 -2 13 -3 3 0 -4 -10 -17 -22 -13 -11 -19 -18
-13 -15 31 15 18 -241 -15 -302 -13 -25 -14 -35 -2 -28 11 7 3 -112 -9 -144
-1 -3 -2 -9 -1 -14 1 -4 -4 -15 -10 -22 -9 -11 -9 -18 -1 -26 18 -18 14 -30
-8 -23 -14 4 -20 2 -20 -8 0 -8 -7 -20 -15 -27 -11 -9 -12 -16 -2 -31 19 -31
36 -23 32 16 -2 19 1 35 6 35 5 0 9 -16 9 -35 0 -24 -6 -37 -20 -45 -27 -14
-25 -28 5 -42 15 -7 25 -19 25 -32 -1 -24 -24 -59 -33 -49 -4 3 -2 11 3 18 11
13 -16 59 -30 50 -5 -3 -11 -1 -14 3 -8 14 -19 83 -19 127 0 33 -3 41 -18 41
-11 0 -19 -4 -19 -8 0 -4 5 -8 10 -8 6 0 10 -9 10 -20 0 -11 -4 -20 -9 -20 -5
0 -8 -12 -6 -27 2 -16 5 -28 6 -28 1 0 3 -20 4 -45 3 -77 16 -159 26 -165 5
-4 9 -22 9 -42 0 -27 3 -34 15 -29 18 7 20 -5 3 -22 -9 -9 -8 -12 5 -12 9 0
17 -4 17 -10 0 -5 -5 -10 -12 -10 -6 0 -9 -2 -6 -5 3 -3 12 -3 21 0 16 7 18
60 3 84 -4 6 -2 11 4 11 7 0 9 8 5 21 -4 11 -4 32 0 46 5 20 9 23 18 14 8 -8
9 -14 1 -19 -12 -8 1 -72 15 -72 5 0 7 -9 4 -20 -3 -11 -1 -20 5 -20 6 0 11
-8 11 -17 0 -54 5 -85 16 -90 7 -2 11 -18 10 -36 -1 -17 4 -37 11 -44 7 -8 11
-19 8 -26 -2 -7 7 -31 22 -52 l26 -38 -21 -37 c-25 -44 -19 -74 24 -122 17
-18 43 -50 58 -71 16 -20 37 -37 48 -37 10 0 19 -4 19 -10 0 -5 -4 -10 -8 -10
-5 0 -8 -39 -6 -87 2 -69 1 -82 -7 -60 -6 15 -14 27 -18 27 -10 0 -8 -51 2
-68 5 -7 5 -21 2 -32 -4 -11 -2 -20 3 -20 5 0 7 -11 5 -24 -3 -13 0 -27 7 -31
8 -5 6 -11 -7 -21 -10 -7 -13 -14 -6 -14 6 0 10 -12 8 -27 -2 -16 0 -32 3 -38
7 -11 9 -29 15 -137 3 -57 2 -66 -10 -57 -11 10 -12 8 -6 -7 7 -19 7 -35 -2
-146 -4 -56 -2 -68 10 -68 8 0 16 -9 17 -20 0 -11 1 -26 2 -32 1 -7 -5 -12
-12 -10 -8 1 -12 -3 -10 -10 3 -7 11 -13 19 -13 10 0 15 -15 17 -50 1 -27 5
-57 9 -65 11 -28 11 -40 0 -40 -7 0 -4 -5 6 -11 21 -12 22 -29 2 -29 -8 0 -15
-7 -15 -15 0 -8 -4 -15 -10 -15 -15 0 -12 16 6 34 8 9 12 16 7 16 -12 0 -34
-16 -36 -26 -1 -5 -8 -9 -16 -11 -7 -1 -18 -6 -24 -12 -6 -6 1 -8 22 -5 20 3
31 1 31 -6 0 -7 7 -9 17 -6 10 4 14 4 10 0 -4 -4 1 -13 11 -21 16 -12 16 -13
-2 -6 -14 5 -17 3 -11 -7 5 -9 4 -11 -4 -6 -6 4 -9 11 -6 16 3 4 -2 11 -11 14
-11 4 -15 2 -11 -8 4 -10 0 -14 -11 -12 -22 4 -69 -16 -70 -29 -1 -5 -13 -11
-27 -13 -18 -2 -33 -15 -46 -37 -13 -21 -26 -32 -35 -28 -8 3 -14 1 -14 -5 0
-5 -13 -12 -30 -15 -16 -4 -39 -16 -50 -27 -11 -11 -31 -20 -45 -20 -16 0 -23
-4 -19 -14 6 -14 -21 -25 -71 -27 -24 -1 -25 -3 -7 -6 29 -6 28 -23 -2 -23
-13 0 -26 -7 -29 -15 -4 -8 -26 -17 -57 -21 -28 -4 -50 -12 -50 -18 0 -7 -12
-17 -27 -23 l-28 -12 26 5 c15 3 30 1 33 -5 4 -6 -3 -12 -16 -15 -86 -16 -140
-31 -144 -38 -3 -5 -9 -6 -14 -3 -4 3 -13 -2 -20 -10 -7 -8 -21 -15 -31 -15
-11 0 -19 -7 -19 -15 0 -9 -9 -15 -22 -15 -36 0 -68 -11 -62 -21 3 -5 -6 -9
-20 -9 -16 0 -26 -6 -26 -15 0 -15 -39 -20 -120 -16 -26 1 -31 -1 -20 -8 8 -5
12 -11 10 -13 -31 -20 -56 -28 -87 -29 l-38 -2 35 -7 c38 -8 32 -10 -45 -16
-27 -2 -51 -8 -53 -14 -2 -5 -10 -10 -18 -10 -20 0 -17 -18 4 -23 9 -3 2 -5
-17 -6 -32 -1 -33 -2 -28 -34 3 -22 1 -34 -6 -34 -7 0 -12 17 -12 38 -1 21 -4
41 -8 45 -3 4 -41 2 -84 -3 -58 -8 -67 -11 -35 -12 52 -1 56 -21 4 -21 -21 0
-43 -5 -49 -11 -5 -5 -36 -13 -67 -16 -34 -3 -60 -11 -63 -19 -3 -9 -15 -11
-34 -7 -19 4 -36 0 -47 -9 -10 -9 -48 -18 -92 -22 -41 -4 -99 -16 -128 -27
-33 -12 -82 -20 -130 -21 -73 -1 -74 -2 -27 -8 28 -4 46 -8 41 -8 -5 -1 -4 -8
2 -14 8 -10 -17 -13 -121 -14 l-132 0 85 12 c74 11 77 12 21 8 -35 -2 -84 -4
-109 -4 -35 0 -43 -3 -38 -15 3 -10 -1 -15 -12 -16 -63 -2 -95 -8 -102 -19 -5
-9 -26 -11 -76 -6 -38 3 -85 2 -104 -3 -27 -7 -20 -8 33 -4 47 4 67 2 67 -6 0
-15 -157 -15 -162 0 -3 9 -24 9 -83 1 -51 -7 -61 -10 -27 -8 43 3 50 1 41 -10
-8 -10 -39 -14 -110 -14 -104 0 -103 0 -102 -47 1 -7 -8 -13 -18 -13 -11 0
-19 5 -19 10 0 6 -9 10 -20 10 -11 0 -20 5 -20 11 0 7 -13 9 -37 5 -134 -23
-602 -33 -665 -15 -47 14 -131 12 -136 -2 -5 -12 -109 -11 -117 1 -4 6 17 10
54 10 34 0 61 4 61 10 0 6 19 11 43 11 23 1 32 4 21 6 -12 2 -53 0 -90 -5 -76
-10 -132 -3 -79 10 22 5 14 6 -30 6 -110 -3 -133 1 -131 18 1 8 8 19 15 23 9
6 8 11 -4 21 -12 10 -18 10 -30 0 -9 -7 -19 -10 -22 -6 -4 4 -2 11 6 15 10 7
10 9 -2 14 -7 3 -20 1 -28 -4 -11 -8 -10 -11 6 -21 19 -12 19 -12 -5 -19 -14
-4 -36 -7 -50 -7 l-25 -1 25 11 c24 10 24 10 5 18 -11 5 -27 9 -35 9 -13 1
-13 -1 -1 -8 11 -7 5 -11 -21 -16 -40 -8 -78 1 -78 17 0 5 6 8 14 5 8 -3 13 0
12 6 -3 23 -17 37 -37 37 -11 0 -17 5 -14 10 3 6 1 10 -5 10 -6 0 -8 5 -5 10
5 8 11 7 20 0 11 -9 14 -7 12 7 0 13 -8 19 -21 18 -16 -1 -21 -9 -21 -31 0
-23 -5 -30 -24 -32 -13 -2 -26 1 -30 6 -3 5 -17 12 -31 16 -14 3 -19 3 -11 0
21 -10 -6 -22 -37 -16 -24 5 -25 6 -7 13 17 8 17 8 -5 6 -14 -1 -24 -8 -23
-14 1 -6 -6 -9 -17 -6 -30 8 -35 24 -11 30 12 3 21 10 21 15 0 5 -5 6 -10 3
-5 -3 -10 -1 -10 5 0 6 -5 8 -11 5 -5 -4 -20 1 -31 12 -21 18 -21 18 -7 -5 8
-12 17 -22 22 -22 4 0 5 -5 2 -11 -5 -6 -12 -4 -20 7 -8 12 -26 18 -52 18 -46
1 -50 26 -4 27 l26 0 -23 10 c-13 5 -28 7 -32 4 -5 -3 -12 -1 -15 5 -5 8 -11
7 -21 -1 -10 -8 -18 -9 -27 0 -8 6 -17 8 -20 4 -4 -3 -7 5 -8 18 l-1 24 -8
-25 c-7 -21 -8 -19 -9 18 -1 23 -5 42 -10 42 -5 0 -7 -14 -5 -30 3 -19 1 -30
-6 -30 -7 0 -9 7 -6 15 5 13 0 15 -29 9 -22 -4 -35 -2 -35 4 0 14 37 25 52 16
7 -4 9 -3 5 1 -4 5 2 14 14 21 22 11 22 12 -4 12 -15 0 -24 -5 -20 -11 3 -5 0
-7 -8 -5 -8 3 -13 10 -12 15 1 5 -4 10 -12 10 -7 0 -11 -6 -8 -13 6 -15 -28
-13 -70 4 -16 7 -37 12 -47 12 -11 0 -24 9 -30 20 -9 16 -8 20 6 20 10 0 14
-5 10 -15 -7 -20 -4 -19 15 4 15 17 14 18 -15 19 -17 0 -32 6 -34 11 -4 13
-42 15 -42 2 0 -5 8 -12 18 -14 14 -4 14 -5 1 -6 -9 0 -22 6 -29 14 -7 8 -18
15 -24 15 -6 0 -20 9 -29 21 -10 11 -24 19 -30 16 -7 -2 -18 2 -25 10 -12 12
-9 13 15 7 l28 -6 -23 17 c-13 9 -34 18 -48 19 -26 1 -34 16 -9 16 12 0 9 7
-10 26 -14 14 -29 23 -33 19 -4 -4 -1 -10 6 -12 6 -3 12 -14 12 -26 0 -22 -1
-22 -19 2 -13 17 -25 22 -41 18 -24 -6 -70 10 -70 25 0 5 -5 6 -12 2 -7 -4 -8
-3 -4 5 5 8 15 6 33 -9 30 -23 47 -26 40 -7 -4 10 2 13 20 9 18 -3 24 -1 19 7
-4 6 -13 11 -19 10 -28 -3 -37 2 -37 24 1 20 2 20 11 5 13 -22 25 -23 33 -2 6
15 4 15 -11 3 -15 -12 -16 -12 -10 4 3 9 3 17 -2 17 -5 0 -12 16 -16 36 -5 29
-9 34 -18 24 -9 -10 -9 -14 1 -17 14 -5 17 -53 2 -53 -6 0 -6 -9 0 -26 8 -20
7 -25 -2 -22 -7 3 -13 9 -13 14 0 20 -18 34 -43 35 -23 0 -24 1 -7 8 19 8 19
8 -1 19 -12 6 -38 13 -58 15 -20 2 -40 8 -44 12 -4 4 3 4 15 1 13 -4 23 -3 23
2 0 5 -10 13 -23 17 -12 3 -17 9 -10 11 7 3 9 12 6 20 -4 10 -9 12 -18 4 -9
-8 -15 -6 -20 7 -6 17 -7 17 -20 -1 -14 -18 -35 -14 -35 7 0 8 3 8 9 -2 5 -8
11 -9 15 -3 9 14 -11 25 -31 18 -13 -5 -14 -4 -3 9 10 12 16 13 26 4 11 -9 14
-8 14 4 0 16 16 16 51 2 9 -3 21 0 27 8 10 12 8 13 -13 9 -15 -2 -25 0 -25 7
0 6 -3 10 -7 10 -25 -4 -43 3 -43 17 0 9 5 12 11 8 8 -5 10 1 7 20 -3 14 -1
26 3 26 5 0 9 -7 9 -15 0 -8 5 -15 10 -15 6 0 10 4 10 10 0 5 8 7 17 3 21 -7
59 -45 56 -55 -2 -4 10 -6 25 -5 17 1 26 -3 25 -10 -2 -7 2 -13 8 -13 6 0 9 7
5 15 -4 11 0 14 17 11 12 -3 24 -5 27 -6 3 -1 13 -1 24 0 10 1 15 -3 12 -8 -6
-10 18 -24 44 -26 9 -1 14 -9 12 -21 -2 -17 1 -16 18 7 21 27 21 27 93 2 10
-4 16 -12 13 -20 -3 -8 2 -11 15 -9 11 2 17 0 14 -6 -4 -5 -1 -9 5 -9 6 0 9
-4 6 -9 -3 -4 6 -13 19 -19 15 -7 26 -8 30 -2 7 11 42 6 100 -14 27 -10 46
-11 58 -4 11 6 23 6 30 0 7 -5 26 -8 42 -7 17 1 35 -1 40 -5 6 -4 25 -11 43
-15 21 -4 32 -12 29 -19 -3 -7 6 -25 19 -40 22 -23 23 -26 7 -27 -10 -1 2 -7
27 -14 l45 -13 -60 4 c-88 6 -95 7 -95 20 0 6 -7 17 -15 24 -14 12 -19 6 -17
-20 1 -12 -93 -1 -96 10 -3 7 0 10 5 7 5 -3 15 -2 23 4 11 6 4 9 -22 9 -41 0
-45 -11 -16 -43 13 -15 25 -18 48 -14 19 4 29 3 25 -3 -3 -6 3 -10 15 -10 12
0 18 5 15 10 -3 6 -1 10 5 10 6 0 13 -7 16 -15 4 -8 18 -15 33 -15 38 1 102
-7 131 -15 14 -4 46 -9 73 -12 26 -3 50 -10 53 -14 3 -5 13 -9 22 -9 12 0 13
3 4 12 -18 18 -15 28 9 28 11 0 17 -5 14 -10 -11 -18 4 -11 26 13 12 12 19 16
15 10 -5 -9 -2 -11 8 -7 20 8 20 12 2 30 -8 8 -17 10 -20 5 -3 -5 -14 -7 -24
-4 -14 3 -18 11 -14 30 4 24 3 25 -24 20 -27 -5 -27 -4 -10 9 17 12 22 12 35
0 9 -7 23 -11 31 -9 10 3 8 -1 -4 -11 -21 -17 -19 -18 14 -18 36 0 39 2 34 17
-8 20 17 28 49 16 18 -7 27 -7 31 2 3 9 6 9 13 0 4 -6 21 -15 36 -18 15 -4 27
-14 27 -22 0 -8 -5 -11 -11 -7 -6 3 -15 0 -20 -7 -14 -22 -11 -39 6 -33 8 4
12 10 9 15 -4 8 16 13 37 11 4 -1 5 8 2 18 -6 23 0 25 30 8 12 -6 38 -12 57
-14 84 -5 120 -16 120 -36 0 -13 -11 -24 -30 -31 -16 -6 -30 -14 -30 -17 0 -3
33 -5 74 -5 41 0 73 2 71 5 -10 15 42 50 74 50 11 0 22 6 24 13 3 7 6 5 6 -6
1 -15 9 -16 58 -12 53 4 87 15 49 15 -9 0 -14 5 -11 10 4 6 14 8 24 5 9 -3 36
-6 59 -7 23 -1 42 -5 42 -10 0 -5 4 -7 9 -4 4 3 34 -2 65 -11 53 -15 57 -15
69 1 16 21 43 12 52 -17 4 -12 7 -26 6 -30 -1 -5 8 -7 19 -5 12 2 19 7 18 11
-2 5 6 13 16 19 15 8 22 7 31 -6 16 -21 31 -20 44 2 6 9 11 12 11 6 0 -6 15
-11 33 -11 17 -1 43 -2 57 -4 14 -1 43 1 64 6 27 5 37 4 32 -3 -16 -26 128
-39 166 -15 21 12 78 21 84 12 8 -13 34 -11 31 2 -1 8 19 13 58 15 33 1 71 7
85 12 14 5 32 6 42 1 10 -5 26 -13 36 -18 14 -7 18 -5 17 8 0 9 -4 22 -8 28
-6 9 3 12 32 10 23 -1 41 -5 41 -9 0 -5 7 -8 16 -8 10 0 14 6 10 15 -4 11 2
15 22 14 24 0 25 -1 7 -9 -20 -9 -20 -9 2 -15 11 -4 24 -16 26 -27 5 -17 11
-19 34 -13 15 4 34 8 41 8 18 1 15 27 -4 27 -8 0 -12 -5 -9 -10 3 -5 1 -10 -4
-10 -6 0 -11 5 -11 11 0 6 -6 9 -13 6 -8 -3 -14 4 -15 20 -1 19 2 24 13 19 8
-3 15 -2 15 2 0 4 21 13 48 21 26 7 57 17 70 22 30 12 79 12 87 -1 13 -22 95
12 95 39 0 6 5 11 11 11 5 0 7 -5 4 -10 -3 -5 -2 -10 4 -10 5 0 11 6 14 13 3
9 8 8 22 -3 10 -8 16 -10 12 -4 -4 7 0 15 9 18 23 9 36 7 29 -4 -3 -6 2 -22
13 -38 11 -15 21 -33 23 -39 2 -8 21 4 47 28 23 22 42 42 42 44 0 2 -10 13
-22 24 -17 17 -19 23 -8 36 7 8 18 15 25 15 6 0 17 12 23 26 7 14 8 23 2 19
-19 -12 -10 11 10 25 11 8 20 21 20 28 0 10 7 12 23 8 19 -4 26 0 35 19 14 29
0 41 -22 19 -20 -20 -20 -10 0 21 9 13 13 29 9 34 -6 11 19 68 29 64 3 -2 18
-3 34 -3 19 0 23 3 13 9 -20 13 -6 44 17 37 25 -8 48 20 62 74 16 66 18 75 20
78 4 3 7 21 9 38 1 9 6 12 14 8 6 -4 3 3 -8 16 -16 19 -17 22 -4 17 20 -7 39
10 39 35 0 10 6 18 14 18 12 0 24 17 26 38 1 4 13 21 28 37 52 56 56 63 42 80
-10 12 -10 16 1 20 17 6 21 55 7 73 -7 8 -7 12 2 12 7 0 10 7 7 14 -4 9 2 17
14 21 14 5 18 12 14 26 -4 11 -2 19 5 19 7 0 9 12 4 36 -5 27 -4 35 5 30 6 -4
15 3 21 18 7 18 14 24 27 20 12 -4 14 -3 6 3 -9 7 -8 15 6 37 10 15 21 27 25
27 37 -5 48 0 44 22 -4 22 6 40 29 48 7 3 8 12 1 29 -6 15 -12 20 -15 12 -6
-15 -23 -6 -23 12 0 14 34 29 58 27 20 -3 14 16 -7 22 -16 4 -19 13 -18 56 2
53 5 59 25 39 9 -9 12 -9 12 3 0 7 6 26 14 40 7 14 16 37 20 52 3 15 11 27 17
27 6 0 6 7 -1 20 -14 25 -30 26 -30 1 0 -10 -7 -21 -15 -25 -21 -8 -19 7 6 38
11 14 17 30 14 36 -3 5 -1 10 4 10 6 0 11 -4 11 -10 0 -19 19 -10 26 13 3 12
15 30 25 40 18 16 16 47 -2 47 -5 0 -18 -9 -28 -19 -11 -11 -22 -17 -25 -14
-3 4 3 12 13 20 11 7 20 21 20 31 0 64 5 81 25 84 22 3 24 18 13 78 -4 18 -2
30 4 30 6 0 8 4 4 9 -3 5 0 13 6 16 5 4 8 13 5 20 -3 8 0 15 7 18 7 2 11 18 9
40 -3 28 0 37 12 37 8 0 20 9 26 21 10 17 14 18 27 8 13 -11 18 -10 29 6 17
22 17 32 4 40 -5 3 -10 11 -10 16 0 6 4 8 9 5 4 -3 7 7 5 23 -2 17 3 34 11 41
7 6 17 25 20 41 4 16 10 29 15 29 15 0 22 71 8 87 -11 14 -10 15 11 8 19 -6
23 -4 18 9 -3 8 -3 18 2 20 4 3 6 23 4 45 -4 48 12 95 29 85 7 -5 9 -2 5 9 -3
8 1 21 8 27 12 10 12 14 1 25 -7 8 -12 24 -11 37 3 30 35 144 50 182 8 19 9
43 3 74 -5 31 -5 48 2 50 5 2 10 11 10 20 1 10 14 33 30 52 17 19 30 38 30 42
0 4 -13 14 -30 23 -43 22 -39 53 10 96 22 19 40 41 40 50 0 19 44 69 61 69 6
0 8 7 5 16 -3 8 3 25 14 37 11 12 18 27 15 34 -2 8 6 19 20 25 14 6 25 19 25
28 0 9 3 20 7 23 10 10 51 8 94 -4z m195 -23 c16 -12 17 -17 5 -28 -11 -10
-14 -10 -18 0 -3 7 -11 19 -20 27 -20 20 5 21 33 1z m-604 -48 c-15 -15 -24
-6 -16 16 5 12 10 14 17 7 8 -8 8 -14 -1 -23z m-2157 -8 c3 -5 1 -10 -4 -10
-6 0 -11 5 -11 10 0 6 2 10 4 10 3 0 8 -4 11 -10z m1884 -14 c13 -7 20 -16 15
-19 -5 -3 -20 3 -33 14 -27 22 -17 25 18 5z m-2014 -6 c-3 -5 -10 -10 -16 -10
-5 0 -9 5 -9 10 0 6 7 10 16 10 8 0 12 -4 9 -10z m-237 -10 c20 0 32 -4 27 -8
-14 -12 -106 -2 -99 10 3 5 13 7 21 4 8 -3 31 -6 51 -6z m122 0 c0 -5 -19 -10
-42 -10 -32 0 -39 3 -28 10 20 13 70 13 70 0z m2166 -41 c19 -22 19 -22 -3 -8
-13 8 -23 17 -23 21 0 12 6 9 26 -13z m-736 -30 c0 -5 -7 -9 -15 -9 -15 0 -20
12 -9 23 8 8 24 -1 24 -14z m688 -7 c6 -19 -13 -14 -33 8 -18 20 -18 21 5 12
13 -5 26 -14 28 -20z m264 3 c-5 -29 -17 -32 -26 -8 -4 9 -1 20 6 25 21 13 25
9 20 -17z m-91 -38 c3 -4 16 -9 29 -12 33 -6 38 -15 7 -15 -29 0 -77 19 -77
30 0 10 33 7 41 -3z m-1185 -35 c-22 -5 -30 3 -21 18 5 8 11 7 22 -2 15 -12
14 -13 -1 -16z m1064 -24 c0 -6 -7 -7 -16 -4 -9 3 -20 6 -25 6 -5 0 -9 4 -9 9
0 4 11 6 25 3 14 -2 25 -9 25 -14z m-1656 -16 c9 -15 -13 -36 -40 -37 -16 -1
-29 -6 -31 -12 -2 -6 23 -9 67 -7 42 2 68 -1 65 -7 -4 -5 1 -9 9 -9 9 0 16 6
16 14 0 20 60 32 71 15 22 -36 3 -48 -76 -48 -22 0 -47 -1 -55 -1 -8 0 -37 1
-63 2 -27 2 -50 1 -53 -3 -3 -5 -106 -5 -124 0 -3 1 2 6 10 11 11 8 8 9 -12 4
-28 -6 -35 1 -20 21 8 11 22 15 64 18 15 1 28 5 28 8 0 13 38 17 50 5 9 -8 11
-7 8 3 -4 19 75 40 86 23z m1741 -12 c3 -5 -1 -10 -9 -10 -9 0 -16 5 -16 10 0
6 4 10 9 10 6 0 13 -4 16 -10z m-1435 -28 c-1 -18 -18 -34 -24 -23 -4 6 -12 9
-17 6 -10 -7 -13 28 -3 38 8 7 44 -10 44 -21z m1490 -9 c0 -19 -13 -9 -16 12
-1 8 2 13 7 9 5 -3 9 -12 9 -21z m-790 0 c0 -5 -4 -15 -10 -23 -11 -18 -25 -7
-17 15 6 15 27 21 27 8z m-1265 -22 c-8 -13 -35 -15 -35 -2 0 5 8 11 18 13 21
5 26 2 17 -11z m1169 -19 c-3 -15 -10 -32 -15 -38 -14 -16 -40 -124 -33 -135
3 -5 0 -9 -6 -9 -7 0 -20 -10 -29 -21 -16 -20 -18 -20 -33 -5 -10 10 -19 12
-23 6 -3 -5 -1 -10 4 -10 6 0 11 -9 11 -20 0 -18 -10 -25 -32 -21 -5 0 -8 -4
-8 -10 0 -6 -7 -8 -15 -5 -9 3 -18 -1 -22 -9 -3 -10 -12 -13 -23 -10 -10 3
-22 0 -26 -6 -5 -8 -3 -9 6 -4 10 6 12 4 7 -9 -4 -9 -3 -15 2 -11 6 3 14 -3
20 -12 6 -10 11 -13 11 -6 0 16 32 9 44 -10 7 -11 6 -21 -6 -34 -9 -10 -15
-30 -13 -48 2 -16 -7 -52 -21 -82 -13 -30 -24 -57 -24 -61 0 -4 -9 -22 -21
-41 -14 -24 -23 -31 -31 -23 -8 8 -6 18 6 37 14 21 15 29 5 41 -10 13 -16 7
-35 -35 -18 -39 -29 -51 -53 -56 -17 -4 -31 -13 -31 -20 0 -8 -16 -14 -41 -17
l-40 -4 4 56 c3 30 7 62 10 70 10 27 17 130 10 129 -18 -3 -33 2 -47 17 -22
21 -36 9 -36 -32 0 -19 -7 -45 -15 -58 -9 -13 -18 -32 -20 -42 -2 -11 -9 -34
-14 -53 -6 -19 -8 -38 -5 -42 3 -5 1 -9 -5 -9 -5 0 -13 -9 -16 -21 -4 -11 -9
-18 -12 -15 -4 3 -13 0 -21 -7 -12 -9 -16 -9 -19 0 -5 15 -41 -13 -53 -42 -8
-18 -9 -18 -9 -2 -1 15 -7 17 -33 12 -18 -4 -45 -8 -59 -9 -14 -2 -31 -6 -37
-10 -7 -4 -12 -3 -12 3 0 5 4 12 9 15 4 3 6 17 3 31 -2 14 1 32 8 40 6 8 9 19
5 25 -4 6 -1 9 7 8 9 -2 12 6 10 25 -1 15 1 27 7 27 5 0 12 16 15 35 8 39 9
40 37 25 20 -12 22 -10 13 14 -3 8 -11 13 -18 10 -8 -3 -12 7 -12 29 0 50 31
69 92 58 58 -11 93 1 73 26 -10 11 -24 13 -56 8 -76 -11 -46 11 40 29 45 10
92 21 105 23 15 4 22 1 22 -10 0 -9 -10 -17 -22 -19 -27 -4 -36 -28 -10 -28
10 0 28 -11 38 -25 25 -33 50 -32 62 3 7 20 17 28 37 30 40 3 41 8 6 27 -34
17 -41 34 -13 36 9 1 23 2 31 3 7 0 18 12 22 25 7 17 6 22 -3 18 -7 -2 -23 -1
-35 4 -22 8 -22 9 -6 46 40 98 39 93 45 128 6 33 18 45 44 45 13 0 24 5 24 10
0 6 -9 10 -20 10 -11 0 -20 4 -20 9 0 9 45 15 199 26 41 3 76 7 78 9 2 2 13 2
23 -1 14 -4 17 -12 14 -31z m-2684 -12 c0 -5 -19 -10 -42 -10 -32 0 -39 3 -28
10 20 13 70 13 70 0z m2267 -2 c-2 -7 -9 -12 -15 -11 -5 1 -24 -2 -41 -7 -38
-11 -41 2 -3 17 38 15 65 15 59 1z m485 -20 c-9 -9 -12 -7 -12 12 0 19 3 21
12 12 9 -9 9 -15 0 -24z m-812 2 c0 -5 -2 -10 -4 -10 -3 0 -8 5 -11 10 -3 6
-1 10 4 10 6 0 11 -4 11 -10z m-2278 -36 c15 -9 -2 -24 -28 -24 -13 0 -24 2
-24 4 0 2 -3 11 -6 20 -5 12 0 14 22 10 15 -3 31 -7 36 -10z m2620 1 c4 -5 -2
-19 -13 -31 -11 -12 -24 -45 -29 -77 -5 -31 -13 -65 -19 -75 -12 -22 -53 -36
-82 -27 -14 5 -19 2 -19 -10 0 -13 -6 -16 -25 -11 -15 4 -25 2 -25 -4 0 -6
-12 -10 -27 -9 -16 1 -40 -1 -54 -5 -40 -11 -48 9 -33 79 7 33 13 82 13 108 1
27 5 46 10 43 5 -4 11 -1 13 5 3 8 42 13 117 14 61 2 115 5 118 9 9 8 47 2 55
-9z m-792 -5 c52 6 222 5 226 -1 9 -16 -62 -48 -94 -43 -24 4 -32 2 -32 -10 0
-9 -4 -16 -10 -16 -5 0 -10 9 -10 19 0 30 -16 34 -38 10 l-20 -20 -8 24 c-8
21 -13 23 -41 15 -23 -6 -31 -13 -26 -24 4 -12 -2 -14 -31 -11 -20 2 -36 0
-36 -4 0 -5 7 -9 16 -9 13 0 14 -3 5 -13 -14 -17 -4 -27 25 -27 22 0 22 -2 12
-32 -6 -18 -18 -43 -26 -55 -7 -12 -10 -28 -6 -34 4 -7 0 -17 -8 -23 -15 -12
-34 -51 -19 -42 5 3 5 -9 1 -27 -4 -17 -12 -31 -18 -30 -7 2 -12 -3 -12 -11 0
-9 -16 -14 -56 -15 -31 0 -60 -3 -65 -6 -5 -4 -6 1 -3 9 8 21 -23 32 -48 17
-10 -6 -52 -13 -93 -15 l-75 -4 6 36 c3 21 8 46 12 57 3 11 5 26 3 33 -1 7 5
15 14 18 10 4 16 17 15 33 -4 54 1 68 25 81 27 14 35 33 10 24 -17 -7 -21 21
-5 31 20 12 85 14 127 3 35 -8 46 -7 65 7 15 11 17 15 6 12 -10 -4 -18 -1 -18
4 0 6 -9 9 -20 6 -11 -3 -20 -1 -20 3 0 14 196 41 235 33 11 -3 27 -4 35 -3z
m-1730 -16 c0 -2 -9 -4 -21 -4 -11 0 -18 4 -14 10 5 8 35 3 35 -6z m284 -25
c-27 -11 -54 -11 -54 0 0 11 49 20 64 12 5 -2 1 -8 -10 -12z m-79 -9 c10 -12
24 -19 31 -16 7 3 14 1 16 -3 7 -18 46 -22 61 -6 21 21 47 19 47 -4 0 -26 -15
-29 -85 -21 -33 4 -102 6 -152 5 -102 -1 -122 9 -42 20 28 4 53 13 56 21 4 11
8 11 20 -2 9 -8 18 -12 22 -8 3 4 0 9 -6 11 -7 3 -13 9 -13 14 0 16 26 10 45
-11z m1888 -6 c-14 -22 -11 -44 7 -44 5 0 14 16 21 35 7 19 19 35 27 35 9 0
12 -6 8 -17 -4 -9 -2 -19 4 -23 10 -6 -12 -64 -30 -75 -4 -3 -6 -14 -3 -25 6
-24 -15 -53 -33 -46 -8 3 -11 0 -7 -10 3 -7 0 -14 -6 -14 -6 0 -11 -9 -11 -19
0 -22 -37 -38 -52 -23 -7 7 -25 4 -57 -10 -25 -11 -76 -22 -112 -25 l-66 -4 4
26 c3 15 1 25 -6 25 -6 0 -11 -8 -11 -17 0 -15 -2 -16 -9 -3 -6 8 -7 27 -4 44
4 21 3 27 -5 22 -7 -4 -12 -2 -12 3 0 6 -7 11 -16 11 -8 0 -12 5 -9 10 5 8 11
7 21 -1 8 -6 16 -10 17 -8 14 21 37 84 37 99 0 21 0 21 45 26 24 2 120 18 222
38 7 1 15 4 18 7 3 3 11 6 19 6 12 0 12 -4 -1 -23z m-1589 -2 c3 -5 19 -7 36
-4 16 2 30 0 30 -4 0 -5 21 -10 47 -12 26 -1 50 -6 53 -10 3 -5 22 -8 42 -8
48 0 52 -5 33 -40 -8 -16 -15 -35 -15 -42 0 -7 -11 -23 -24 -35 -13 -13 -26
-36 -28 -52 -3 -29 -5 -30 -58 -31 -71 -2 -140 -13 -140 -24 0 -8 63 -23 104
-24 11 -1 21 -6 23 -12 2 -7 -13 -8 -49 -4 -29 4 -83 6 -120 5 l-68 -3 7 26
c3 15 10 37 14 49 5 14 4 23 -3 25 -8 3 -6 12 5 28 9 14 17 34 17 45 0 31 44
69 71 62 24 -6 59 8 59 23 0 5 -20 8 -45 6 -50 -3 -52 -1 -28 26 18 20 29 23
37 10z m-540 -11 c12 -5 15 -10 9 -14 -6 -4 -26 0 -44 8 -31 13 -32 14 -9 14
14 0 34 -4 44 -8z m1238 -24 c-6 -35 -33 -87 -45 -87 -8 0 -7 -3 3 -10 12 -8
12 -16 -4 -62 -10 -29 -25 -68 -34 -86 -18 -36 -22 -36 -107 -12 -46 13 -66
16 -152 26 -35 3 -63 9 -64 13 -8 50 -6 90 6 108 19 28 19 33 0 33 -13 0 -14
4 -3 23 7 12 11 25 10 29 -3 11 37 30 49 22 6 -3 8 -12 5 -20 -3 -8 1 -14 9
-14 8 0 15 -4 15 -10 0 -5 5 -10 12 -10 7 0 5 7 -5 18 -15 16 -15 19 3 30 25
16 50 15 50 0 1 -9 4 -8 13 2 7 8 26 16 42 17 92 7 137 12 141 16 12 11 59
-11 56 -26z m536 -44 c0 -37 -10 -51 -18 -27 -6 16 4 54 14 54 2 0 4 -12 4
-27z m-1430 -2 c27 -1 28 -21 2 -44 -11 -9 -20 -26 -20 -38 0 -11 -13 -40 -30
-64 -16 -24 -30 -51 -30 -59 0 -21 -1 -21 -95 10 -44 14 -88 27 -97 29 -9 2
-26 9 -37 15 -12 6 -21 8 -21 4 0 -4 -3 -5 -6 -1 -7 7 25 77 36 77 4 0 7 8 6
18 0 10 6 16 17 16 9 -1 17 1 17 5 0 3 14 7 32 8 17 1 38 8 45 16 11 11 78 14
181 8z m-378 -18 c0 -6 -6 -13 -12 -16 -10 -3 -10 -7 0 -20 11 -13 11 -17 -1
-24 -7 -4 -17 -16 -20 -27 -5 -13 -11 -15 -20 -8 -7 6 -32 11 -56 10 -23 0
-47 4 -53 10 -6 6 -16 8 -23 6 -7 -3 -16 -1 -20 5 -4 7 4 11 21 11 26 0 26 1
11 18 -10 10 -17 22 -17 27 0 5 7 0 15 -11 15 -19 16 -19 13 1 -2 11 -7 23
-12 26 -5 4 32 6 83 6 62 -1 91 -5 91 -14z m4775 -51 c-3 -3 -11 0 -18 7 -9
10 -8 11 6 5 10 -3 15 -9 12 -12z m-3004 -59 c-9 -16 -10 -15 -11 8 0 14 3 29
8 33 12 12 14 -22 3 -41z m4815 -8 c-8 -30 -26 -33 -26 -5 0 23 23 54 28 39 2
-6 1 -21 -2 -34z m-2981 25 c3 -5 2 -10 -4 -10 -5 0 -13 5 -16 10 -3 6 -2 10
4 10 5 0 13 -4 16 -10z m-3781 -27 c20 2 39 0 42 -5 3 -4 24 -13 47 -19 23 -6
36 -14 30 -16 -7 -3 -13 -11 -13 -19 0 -10 -7 -13 -22 -10 -13 3 -41 8 -63 12
-22 4 -43 8 -47 9 -5 2 -11 3 -15 4 -5 1 -17 8 -27 16 -16 12 -17 17 -6 30 9
10 16 12 25 5 6 -5 28 -8 49 -7z m2294 -77 c0 -24 -2 -25 -62 -20 -106 8 -119
15 -56 29 30 7 69 13 86 14 27 1 32 -2 32 -23z m-2265 -12 c38 -7 56 -21 41
-33 -5 -3 -10 -19 -12 -36 -2 -16 -10 -40 -18 -53 -8 -12 -12 -27 -9 -32 3 -5
-6 -17 -20 -26 -18 -12 -24 -22 -20 -35 6 -17 3 -18 -19 -9 -14 5 -26 7 -26 3
0 -4 -10 3 -23 15 -13 12 -26 20 -29 17 -3 -3 -11 1 -18 10 -7 8 -19 15 -27
15 -8 0 -11 5 -8 10 3 6 1 10 -6 10 -8 0 -8 4 1 15 7 8 9 15 5 15 -5 0 -1 8 7
18 8 9 20 37 27 62 7 25 18 48 23 51 5 3 28 2 51 -2 23 -5 59 -11 80 -15z
m227 10 c0 -8 4 -13 9 -10 5 3 16 -5 25 -19 10 -15 22 -22 31 -19 8 4 30 -1
49 -10 19 -9 41 -13 50 -10 8 3 21 2 28 -2 7 -5 16 -9 21 -10 4 -1 10 -2 15
-3 4 -1 0 -6 -8 -12 -12 -8 -12 -12 -2 -16 8 -3 10 -9 4 -16 -5 -7 -12 -25
-16 -41 -7 -31 -28 -56 -45 -56 -6 0 -11 -4 -11 -10 0 -5 4 -10 10 -10 6 0 6
-9 -1 -26 -5 -15 -7 -34 -4 -43 6 -22 -10 -45 -25 -36 -9 5 -10 2 -6 -13 7
-19 -19 -41 -26 -22 -2 5 -20 10 -40 12 -22 1 -38 7 -38 14 0 7 -10 16 -22 19
-13 4 -42 15 -65 26 -24 10 -49 19 -57 19 -7 0 -19 6 -25 14 -9 10 -5 19 15
40 15 14 31 26 35 26 15 0 10 18 -5 22 -11 2 -9 13 10 48 40 78 49 102 52 143
2 22 42 23 42 1z m851 -17 c11 3 19 1 19 -4 0 -6 11 -8 25 -5 37 7 95 -7 95
-22 0 -9 -12 -14 -34 -14 -19 0 -39 -3 -45 -6 -5 -4 -12 -2 -16 4 -3 5 -21 8
-39 6 -36 -4 -72 11 -48 21 10 4 10 8 0 21 -11 14 -11 14 6 5 10 -6 27 -8 37
-6z m1077 -36 c2 -7 10 -6 21 1 10 6 29 8 43 5 21 -6 24 -11 20 -39 -2 -18 -8
-37 -12 -43 -4 -5 -11 -30 -15 -55 -4 -24 -11 -51 -16 -60 -4 -8 -10 -23 -13
-32 -3 -12 -11 -16 -23 -11 -15 5 -16 3 -5 -8 6 -7 12 -19 12 -27 0 -12 -22
-13 -136 -8 -150 7 -186 16 -141 37 23 10 27 18 27 55 0 24 5 46 10 49 6 4 8
15 5 24 -7 24 18 44 47 37 13 -3 17 -3 11 0 -7 3 -13 18 -13 34 0 39 46 60
120 55 30 -2 56 -9 58 -14z m-836 -58 c-6 -10 -8 -31 -5 -46 4 -18 0 -34 -10
-45 -10 -10 -14 -27 -11 -39 7 -26 -22 -44 -51 -32 -29 11 -45 11 -45 -2 0 -5
5 -7 10 -4 6 4 17 1 25 -5 8 -7 24 -10 34 -7 12 3 22 -1 25 -9 4 -10 -3 -14
-23 -14 -17 0 -31 -6 -35 -15 -3 -9 -19 -21 -36 -27 -23 -8 -29 -15 -25 -28 7
-23 -2 -29 -51 -34 -22 -2 -47 -7 -56 -11 -10 -4 -24 -5 -32 -2 -7 3 -18 1
-24 -5 -7 -7 -17 -6 -31 2 -12 6 -30 8 -41 5 -10 -3 -21 -2 -23 3 -3 4 3 9 14
9 47 4 62 52 24 79 -15 11 -16 16 -5 29 14 17 30 20 30 5 0 -5 -8 -10 -17 -11
-14 0 -15 -2 -3 -6 8 -3 21 -12 27 -21 7 -9 15 -13 18 -10 3 3 -1 12 -8 20
-17 16 -5 48 17 48 22 0 27 28 7 35 -28 9 -33 43 -8 51 20 6 20 7 -4 25 l-24
20 25 -4 c14 -2 19 -2 13 0 -17 6 -16 20 1 26 9 4 17 -2 21 -14 4 -10 11 -19
16 -19 6 0 8 4 5 9 -3 4 6 6 21 3 16 -3 24 -1 20 5 -4 6 10 15 33 21 26 6 42
6 46 0 3 -5 12 -7 20 -4 8 3 14 1 14 -4 0 -6 12 -10 27 -10 33 0 74 36 66 59
-5 12 -3 13 6 5 9 -9 10 -17 3 -31z m-523 8 c4 -6 15 -9 23 -6 12 5 18 -2 24
-27 9 -39 8 -53 -12 -96 -8 -17 -17 -49 -19 -70 -2 -20 -5 -39 -6 -42 -1 -3
-1 -9 0 -14 7 -37 -31 -60 -57 -34 -7 7 -12 8 -12 4 0 -5 -7 -3 -15 4 -8 7
-21 10 -30 7 -8 -4 -18 1 -23 10 -11 19 -112 37 -126 23 -7 -7 6 -10 35 -10
37 0 94 -18 64 -20 -5 -1 0 -5 13 -10 12 -5 22 -17 22 -26 0 -16 -2 -16 -20 1
-11 10 -20 13 -20 7 0 -15 -47 -16 -52 -2 -2 7 -15 7 -38 0 -58 -17 -70 -14
-67 18 2 15 12 45 21 66 10 22 24 67 33 101 16 64 59 131 69 108 7 -16 34 -17
34 -2 0 6 6 9 14 6 8 -3 22 0 32 7 21 16 103 14 113 -3z m938 -6 c-1 14 5 20
20 21 35 2 49 -11 33 -31 -8 -9 -15 -38 -16 -65 -1 -26 -4 -52 -8 -58 -3 -6
-4 -16 -1 -24 3 -7 1 -17 -3 -23 -10 -14 -55 -39 -47 -26 3 6 -1 11 -10 11
-12 0 -15 -5 -11 -16 5 -13 1 -15 -18 -10 -14 3 -28 2 -31 -4 -3 -5 -16 -10
-28 -10 -54 -2 -94 -8 -112 -17 -11 -6 -33 -10 -50 -9 -16 1 -37 -2 -46 -5 -8
-4 -21 -4 -28 0 -10 6 -9 11 3 24 19 19 21 31 3 24 -16 -6 -20 22 -11 81 4 31
9 41 17 34 7 -5 27 -7 45 -5 32 5 32 6 12 23 -27 24 -27 60 0 53 11 -3 28 1
37 8 9 8 28 15 42 16 14 1 46 5 71 8 25 3 55 7 67 8 12 1 25 6 29 10 5 4 16
-2 25 -15 16 -21 17 -21 16 -3z m3073 -65 c0 -5 -5 -10 -11 -10 -5 0 -7 5 -4
10 3 6 8 10 11 10 2 0 4 -4 4 -10z m-4932 -82 c25 -16 30 -23 20 -29 -10 -7
-8 -10 10 -15 12 -4 22 -11 22 -16 0 -5 -4 -7 -8 -4 -5 3 -19 7 -33 10 -29 5
-99 34 -99 41 0 2 7 2 15 -1 8 -4 15 -1 15 6 0 6 -9 14 -20 17 -11 3 -20 10
-20 15 0 14 59 -1 98 -24z m-7 -121 c19 -12 25 -97 7 -97 -7 0 -7 -4 1 -14 9
-10 8 -16 -4 -26 -8 -7 -15 -19 -15 -27 0 -8 -5 -24 -12 -36 -7 -12 -13 -31
-15 -42 -2 -11 -7 -23 -11 -27 -11 -11 -62 -18 -62 -8 0 10 -67 50 -84 50 -19
0 -49 37 -41 50 4 6 -1 18 -11 25 -18 13 -18 14 -1 15 18 0 25 20 7 20 -16 0
-12 30 5 36 8 4 15 13 15 21 0 8 5 11 10 8 6 -3 10 1 10 9 0 8 17 37 37 65
l37 50 56 -31 c30 -18 62 -36 71 -41z m3007 36 c-2 -24 -8 -37 -15 -35 -8 1
-13 -10 -13 -30 0 -18 -7 -41 -14 -51 -13 -16 -14 -16 -19 5 -4 12 -1 29 6 37
7 10 4 9 -10 -2 -25 -22 -42 -5 -19 19 18 17 20 30 8 38 -17 10 -31 -11 -37
-52 -2 -23 -14 -60 -25 -82 -11 -22 -19 -43 -18 -47 1 -5 -2 -25 -6 -45 -5
-24 -12 -35 -21 -32 -7 3 -22 -4 -33 -16 -14 -15 -27 -20 -41 -15 -14 4 -21 2
-21 -7 0 -7 -6 -4 -12 7 -16 30 -18 31 -28 15 -7 -10 -10 -11 -10 -2 0 6 -4
12 -10 12 -5 0 -10 -8 -10 -17 0 -12 -3 -14 -11 -6 -8 8 -8 24 0 60 6 26 13
65 16 85 4 25 10 35 19 32 10 -4 12 2 9 19 -4 18 2 30 22 46 15 11 33 21 39
21 6 0 16 10 21 22 7 16 23 26 50 31 65 14 100 13 98 0 -2 -7 4 -13 12 -13 8
0 15 5 15 10 0 6 4 10 9 10 5 0 8 -7 7 -16 0 -9 5 -19 13 -22 8 -3 11 0 7 6
-3 6 -2 13 3 17 6 3 8 12 4 20 -3 8 0 15 7 15 7 0 10 -14 8 -37z m-372 -35 c3
-11 1 -25 -4 -30 -6 -6 -8 -17 -5 -24 3 -8 1 -14 -5 -14 -5 0 -9 -12 -8 -27 0
-16 -10 -62 -23 -104 -20 -64 -27 -76 -42 -72 -11 3 -19 1 -19 -5 0 -6 -9 -8
-20 -5 -14 4 -20 0 -20 -10 0 -20 27 -36 50 -30 10 3 20 -2 24 -12 3 -9 2 -14
-3 -11 -4 3 -25 1 -45 -5 -35 -10 -69 -15 -108 -18 -10 0 -18 -6 -18 -12 0 -7
7 -8 18 -4 28 12 47 11 45 -2 -2 -9 7 -11 31 -8 28 5 34 2 39 -15 3 -11 2 -20
-3 -20 -4 0 -5 -10 -3 -23 8 -43 -31 -150 -44 -119 -2 6 -9 10 -14 6 -5 -3 -9
0 -9 5 0 6 -7 11 -15 11 -8 0 -15 -4 -15 -9 0 -5 -21 -6 -47 -4 -36 4 -54 12
-70 31 -13 15 -23 23 -23 17 0 -5 -5 -3 -10 5 -8 13 -10 12 -10 -3 0 -10 -4
-16 -8 -13 -14 9 -5 124 12 160 12 26 22 34 36 31 24 -5 25 8 5 39 -20 29 -14
113 10 149 11 18 15 36 10 57 -4 17 -2 30 3 30 9 0 24 -24 26 -42 1 -3 5 -10
10 -15 5 -5 6 -3 2 5 -4 6 -2 12 3 12 6 0 11 9 11 20 0 11 5 20 10 20 6 0 10
11 10 25 0 18 5 25 19 25 11 0 22 4 25 9 3 5 14 7 24 5 9 -2 30 -1 46 4 15 4
48 8 72 8 35 1 45 -3 50 -18z m-2311 -24 c17 -3 48 -10 70 -15 22 -6 51 -12
63 -14 42 -6 38 -17 -5 -13 -23 2 -39 0 -37 -4 3 -5 11 -8 18 -8 8 0 19 -7 26
-15 10 -12 6 -27 -20 -80 -18 -37 -42 -75 -53 -86 -11 -10 -17 -19 -13 -19 4
0 1 -7 -7 -15 -11 -10 -35 -13 -90 -12 -41 1 -73 5 -71 8 2 3 -27 6 -64 6
-111 1 -105 -1 -98 35 3 18 10 34 14 38 5 3 14 21 22 40 7 19 19 42 27 51 7 8
13 19 13 23 0 4 7 14 15 23 11 11 19 12 28 5 7 -6 40 -11 73 -10 33 0 70 -2
82 -6 12 -4 22 -3 22 2 0 13 -47 32 -83 32 -29 1 -77 28 -77 44 0 6 81 0 145
-10z m1909 -3 c3 -5 16 -7 27 -4 20 6 21 3 14 -23 -5 -16 -9 -40 -11 -54 -1
-14 -4 -32 -7 -40 -7 -19 -19 -88 -21 -117 -1 -24 -16 -33 -16 -10 -1 6 -7 1
-14 -13 -8 -14 -12 -28 -9 -33 3 -4 2 -15 -1 -24 -6 -14 -8 -14 -25 1 -18 17
-20 16 -26 -3 -8 -26 2 -42 23 -39 13 2 16 -3 14 -22 -1 -14 -3 -32 -3 -41 0
-8 -9 -40 -18 -70 -15 -44 -22 -54 -42 -55 -13 -1 -30 -11 -37 -23 -9 -13 -25
-21 -42 -21 -29 0 -58 24 -41 34 5 4 12 2 15 -2 3 -5 15 -8 28 -6 13 1 26 3
31 3 4 1 7 6 7 12 0 7 -22 9 -67 5 -38 -3 -72 -6 -78 -6 -15 -2 -38 5 -52 13
-7 5 -13 4 -13 -1 0 -13 -38 -23 -45 -12 -3 5 -1 10 5 12 5 1 12 32 15 67 2
35 11 71 19 80 7 9 14 29 14 45 -1 31 18 48 43 40 10 -2 19 2 23 12 5 13 3 14
-6 6 -16 -13 -48 8 -48 30 0 9 -7 28 -15 44 -13 26 -12 29 8 49 12 12 24 20
27 19 3 -1 6 6 6 17 0 10 -4 19 -8 19 -4 0 -8 5 -8 10 0 7 6 7 18 1 26 -14 50
23 24 38 -16 9 -16 11 2 24 11 8 33 14 50 15 17 0 32 5 34 11 3 10 59 -4 76
-20 5 -4 19 -4 32 1 14 6 26 6 29 0 4 -6 11 -10 16 -10 6 0 7 5 3 12 -5 8 -2
9 10 5 13 -5 17 -3 13 7 -9 22 15 37 27 17z m-514 -26 c-7 -8 -17 -15 -23 -15
-6 0 -2 7 9 15 25 19 30 19 14 0z m3113 -10 c-3 -9 -8 -14 -10 -11 -3 3 -2 9
2 15 9 16 15 13 8 -4z m-3142 -20 c13 9 11 -9 -3 -23 -21 -21 -2 -23 22 -2 28
25 43 26 38 3 -3 -12 6 -23 26 -33 25 -13 30 -22 33 -60 3 -25 10 -48 16 -52
9 -6 9 -8 0 -8 -6 0 -17 -16 -23 -35 -6 -19 -16 -33 -21 -29 -5 3 -19 2 -31
-2 -21 -6 -21 -7 -3 -20 18 -14 19 -15 2 -44 -10 -17 -16 -31 -13 -31 3 -1 12
-2 19 -3 6 0 12 -7 11 -13 -3 -35 -4 -38 -14 -23 -8 11 -9 8 -4 -12 4 -19 1
-33 -11 -44 -16 -16 -16 -18 0 -27 15 -8 14 -12 -13 -37 -17 -15 -28 -31 -25
-34 4 -3 -19 -6 -51 -6 -41 0 -58 4 -62 15 -5 12 -10 13 -20 4 -7 -6 -18 -8
-24 -4 -5 3 -10 2 -10 -4 0 -12 -93 -4 -131 12 -23 9 -26 14 -18 35 5 13 9 35
8 50 l0 27 -11 -25 c-6 -14 -12 -20 -15 -13 -5 14 20 70 47 103 11 14 21 36
22 50 2 14 9 28 17 31 11 4 10 8 -4 22 -17 18 -14 70 6 82 5 4 9 14 9 24 0 20
56 86 80 93 8 2 26 -1 40 -9 14 -7 26 -9 28 -4 2 5 11 7 20 5 10 -3 22 4 30
16 7 11 8 20 2 20 -5 0 -7 7 -3 16 5 15 7 15 15 0 5 -9 13 -14 19 -11z m676 3
c-3 -8 -6 -5 -6 6 -1 11 2 17 5 13 3 -3 4 -12 1 -19z m-537 -8 c0 -5 -7 -10
-16 -10 -8 0 -12 5 -9 10 3 6 10 10 16 10 5 0 9 -4 9 -10z m-2689 -23 c-10 -9
-11 -8 -5 6 3 10 9 15 12 12 3 -3 0 -11 -7 -18z m1595 -22 c6 -8 14 -12 18 -8
4 4 23 8 42 9 19 0 30 -2 23 -6 -6 -4 -8 -13 -5 -19 4 -6 12 -8 18 -5 7 4 8 2
4 -4 -4 -7 -2 -12 4 -12 7 0 10 -7 7 -14 -4 -10 -1 -13 9 -9 8 3 13 12 10 19
-3 8 0 11 9 7 11 -4 12 -10 4 -24 -5 -11 -8 -23 -5 -28 3 -5 -4 -21 -16 -36
-12 -16 -21 -43 -22 -67 -2 -41 -29 -72 -39 -44 -4 10 -17 11 -50 6 -24 -3
-55 -3 -67 2 -13 5 -37 6 -55 2 -19 -3 -35 -1 -39 5 -4 6 -15 11 -24 11 -28 0
-64 30 -54 43 5 7 17 43 25 80 16 71 41 111 64 103 7 -3 13 -1 13 4 0 15 114
2 126 -15z m2193 -46 c-17 -33 -28 -31 -18 3 5 18 9 35 9 38 0 3 4 -2 9 -9 6
-9 6 -22 0 -32z m-1577 4 c1 -10 2 -27 3 -38 1 -11 7 -19 13 -17 17 3 15 -13
-3 -28 -8 -7 -15 -18 -15 -26 0 -7 -9 -18 -21 -24 -15 -9 -18 -15 -9 -25 8 -9
7 -14 -3 -18 -16 -6 -20 -56 -5 -74 5 -7 5 -14 -1 -17 -6 -4 -8 -13 -5 -20 3
-7 -2 -21 -11 -30 -9 -9 -12 -16 -6 -16 10 0 6 -64 -4 -80 -3 -6 -130 -5 -130
0 0 2 -19 4 -42 4 -24 1 -43 -2 -43 -6 0 -5 -9 -4 -20 2 -11 6 -18 15 -15 21
4 5 2 9 -4 9 -5 0 -13 -5 -16 -10 -4 -6 -12 -7 -18 -3 -6 4 -18 8 -27 10 -80
14 -79 14 -68 39 6 13 18 24 26 24 9 0 12 3 9 6 -4 4 3 15 15 25 12 12 16 19
8 19 -9 0 -8 6 4 19 18 20 15 51 -6 78 -7 8 3 26 31 56 23 24 41 48 41 53 0 4
-5 3 -12 -4 -7 -7 -16 -12 -21 -12 -5 0 6 12 24 28 18 15 37 26 41 25 4 -2 8
1 8 6 0 15 30 22 50 11 16 -8 18 -8 14 5 -7 18 7 20 24 3 9 -9 12 -9 12 0 0 7
11 12 25 12 14 0 25 -4 25 -8 0 -15 57 -12 70 3 18 21 60 19 62 -2z m-1672
-63 c0 -5 -5 -10 -11 -10 -5 0 -7 5 -4 10 3 6 8 10 11 10 2 0 4 -4 4 -10z m25
-10 c3 -5 1 -10 -4 -10 -6 0 -11 5 -11 10 0 6 2 10 4 10 3 0 8 -4 11 -10z
m2168 -53 c-7 -12 -23 3 -23 22 0 28 14 35 21 9 3 -13 4 -26 2 -31z m-2094 26
c3 -2 0 -8 -5 -13 -7 -7 -18 -3 -35 11 l-24 21 30 -8 c17 -4 32 -9 34 -11z
m5652 -10 c13 -16 12 -17 -3 -4 -10 7 -18 15 -18 17 0 8 8 3 21 -13z m-5784
-19 c18 -14 37 -23 42 -20 5 3 11 -1 15 -9 8 -22 -30 -19 -43 3 -10 16 -10 15
-11 -3 -1 -18 -3 -17 -25 8 -44 49 -31 62 22 21z m158 16 c-3 -5 3 -10 13 -10
12 0 22 -9 25 -21 5 -19 4 -19 -11 -6 -9 7 -25 17 -35 20 -18 7 -15 27 4 27 6
0 7 -4 4 -10z m-75 -10 c0 -5 -2 -10 -4 -10 -3 0 -8 5 -11 10 -3 6 -1 10 4 10
6 0 11 -4 11 -10z m40 -20 c0 -5 -7 -7 -15 -4 -8 4 -15 8 -15 10 0 2 7 4 15 4
8 0 15 -4 15 -10z m3011 -46 c-4 -56 -8 -65 -21 -44 -7 11 -10 1 -10 -32 0
-44 -2 -48 -24 -48 -13 0 -26 -4 -28 -9 -1 -4 -20 -11 -41 -15 -34 -6 -38 -5
-48 21 -13 34 -3 92 17 100 7 3 14 10 14 17 0 14 56 40 69 32 5 -3 20 3 32 14
35 28 44 20 40 -36z m899 46 c0 -5 -2 -10 -4 -10 -3 0 -8 5 -11 10 -3 6 -1 10
4 10 6 0 11 -4 11 -10z m-3762 -13 c31 1 28 -14 -8 -32 -42 -22 -75 -19 -107
10 -21 19 -23 24 -8 18 11 -3 30 -13 42 -20 16 -11 27 -12 41 -4 11 6 23 7 27
3 5 -4 5 -1 1 6 -4 7 -10 10 -14 8 -4 -2 -14 3 -22 12 -13 14 -12 15 5 7 11
-4 30 -8 43 -8z m775 -71 c3 3 12 2 19 -2 7 -5 40 -13 72 -19 56 -9 59 -11 43
-27 -9 -9 -17 -22 -17 -28 0 -7 -7 -10 -15 -6 -15 5 -22 -18 -7 -27 4 -2 2 -2
-5 -1 -7 2 -15 -1 -18 -6 -4 -6 1 -10 9 -10 18 0 19 -2 10 -24 -8 -22 -156
-23 -197 -2 -15 8 -36 13 -47 11 -11 -2 -22 0 -25 6 -4 5 -21 9 -38 9 -39 0
-109 19 -105 28 2 4 10 24 18 45 16 42 22 45 49 18 18 -18 20 -18 34 -3 9 9
16 20 16 25 1 4 2 7 4 6 1 0 21 7 44 16 25 10 57 15 77 12 22 -3 36 -1 36 6 0
5 8 0 19 -11 10 -12 21 -19 24 -16z m5018 5 c0 -3 2 -14 4 -23 5 -29 -10 -21
-22 11 -9 24 -8 29 3 24 8 -3 14 -8 15 -12z m-5651 -17 c0 -13 2 -13 16 1 11
10 19 13 23 6 5 -7 20 -6 46 3 40 14 152 11 169 -5 5 -4 5 -20 2 -35 -5 -20
-10 -24 -16 -15 -5 9 -17 11 -33 7 -14 -3 -38 1 -56 10 -17 9 -37 14 -44 11
-6 -2 5 -12 26 -21 20 -10 37 -22 37 -25 0 -15 -13 -21 -24 -11 -11 8 -59 1
-98 -15 -11 -4 -18 -3 -18 5 0 6 -5 8 -10 5 -12 -7 -40 12 -40 27 0 6 7 8 15
4 8 -3 15 -1 15 5 0 6 -9 13 -21 16 -12 4 -18 11 -15 20 3 8 6 19 6 24 0 6 5
7 10 4 6 -3 10 -13 10 -21z m2810 -74 c0 -5 -5 -10 -11 -10 -5 0 -7 5 -4 10 3
6 8 10 11 10 2 0 4 -4 4 -10z m-1990 -30 c0 -5 -5 -10 -11 -10 -5 0 -7 5 -4
10 3 6 8 10 11 10 2 0 4 -4 4 -10z m1810 -55 c0 -8 -7 -15 -15 -15 -8 0 -15 7
-15 15 0 8 7 15 15 15 8 0 15 -7 15 -15z m-768 -20 c21 0 38 -1 38 -2 0 -10
-66 -34 -81 -30 -11 3 -19 1 -19 -5 0 -5 -4 -6 -10 -3 -17 10 -11 43 8 47 9 2
19 1 22 -2 3 -3 22 -6 42 -5z m398 -55 c0 -5 -4 -10 -9 -10 -6 0 -13 5 -16 10
-3 6 1 10 9 10 9 0 16 -4 16 -10z m3306 -57 c-10 -11 -56 -11 -50 -1 3 4 17 8
31 8 15 0 23 -3 19 -7z m90 -31 c6 -8 16 -12 22 -8 7 4 9 -10 6 -46 -2 -29 -9
-55 -14 -56 -7 -3 -6 -10 2 -20 12 -15 11 -16 -5 -3 -10 8 -16 22 -14 32 3 11
0 16 -8 13 -7 -3 -16 0 -21 7 -4 7 -3 10 3 6 6 -4 13 2 16 12 3 13 1 18 -8 14
-8 -2 -18 5 -25 16 -7 14 -7 21 0 21 5 0 10 -4 10 -10 0 -5 4 -10 10 -10 13 0
-4 45 -19 46 -21 3 -22 4 -16 14 7 12 44 -5 61 -28z m133 -51 c0 -14 -1 -14
-6 -1 -3 8 -10 24 -15 35 -9 20 -9 20 6 1 9 -11 16 -27 15 -35z m-521 20 c3
-8 -3 -12 -14 -9 -23 4 -31 27 -8 24 10 -2 20 -8 22 -15z m185 -11 c-3 -12 -8
-19 -11 -16 -5 6 5 36 12 36 2 0 2 -9 -1 -20z m50 -17 c-5 -11 -8 -12 -13 -2
-5 7 -6 19 -3 26 5 11 8 12 13 2 5 -7 6 -19 3 -26z m772 28 c3 -5 0 -13 -6
-17 -8 -4 -9 -3 -5 4 10 16 -6 15 -24 0 -12 -11 -12 -10 -1 5 15 19 27 22 36
8z m-724 -14 c-1 -12 -15 -9 -19 4 -3 6 1 10 8 8 6 -3 11 -8 11 -12z m174 -17
c-3 -10 -1 -21 4 -25 7 -4 7 -14 1 -30 -6 -16 -6 -25 0 -25 6 0 10 -11 10 -25
0 -26 -15 -34 -23 -12 -4 8 -6 9 -6 0 -1 -6 7 -19 16 -29 19 -18 29 -64 15
-64 -5 0 -6 -17 -2 -38 5 -28 2 -41 -11 -55 -13 -14 -19 -15 -25 -6 -5 9 -10
7 -16 -7 -5 -12 -6 -7 -3 16 6 33 5 34 -10 16 -11 -15 -18 -17 -26 -9 -6 6
-18 9 -25 6 -8 -3 -14 0 -14 5 0 18 -66 122 -73 115 -4 -3 -7 -1 -7 4 0 6 6
14 13 17 9 5 9 7 0 12 -7 3 -9 12 -6 20 3 8 -1 14 -8 14 -10 0 -11 2 -3 8 15
9 22 50 10 54 -5 2 -10 -6 -12 -17 -2 -11 -8 -21 -13 -23 -6 -2 -11 -11 -11
-20 0 -14 -2 -15 -10 -2 -5 8 -5 19 0 25 5 6 5 17 0 25 -14 22 -12 30 5 24 8
-4 15 -2 15 2 0 5 11 10 25 10 14 1 23 -1 21 -5 -7 -12 14 -52 24 -46 5 3 10
1 10 -5 0 -7 -8 -9 -22 -5 -19 6 -21 5 -10 -6 6 -7 12 -32 12 -55 0 -34 4 -43
22 -47 18 -5 19 -8 8 -22 -11 -13 -10 -14 5 -9 13 5 16 4 11 -4 -4 -7 -1 -12
8 -12 9 0 16 5 16 10 0 6 -5 10 -11 10 -6 0 -9 7 -5 15 3 8 2 15 -3 15 -4 0
-13 11 -19 25 -9 20 -9 23 4 18 21 -8 15 29 -6 39 -12 5 -12 7 3 7 22 1 61
-36 44 -42 -7 -2 -9 -8 -5 -12 4 -4 13 -3 20 1 7 5 18 9 23 9 6 0 10 7 10 15
0 8 -7 14 -15 12 -8 -2 -3 8 12 21 24 21 26 27 18 62 -9 41 -5 59 11 49 5 -3
7 -14 4 -24z m115 -61 c0 -5 -4 -9 -10 -9 -5 0 -10 7 -10 16 0 8 5 12 10 9 6
-3 10 -10 10 -16z m10 -39 c0 -5 -7 -7 -15 -4 -8 4 -15 8 -15 10 0 2 7 4 15 4
8 0 15 -4 15 -10z m-54 -35 c19 -19 14 -19 -22 0 -21 11 -24 15 -11 15 10 0
25 -7 33 -15z m59 5 c3 -5 1 -10 -4 -10 -6 0 -11 5 -11 10 0 6 2 10 4 10 3 0
8 -4 11 -10z m-425 -14 c0 -3 -4 -8 -10 -11 -5 -3 -10 -1 -10 4 0 6 5 11 10
11 6 0 10 -2 10 -4z m368 -51 c-1 -19 -5 -35 -10 -35 -4 0 -3 -9 4 -20 11 -16
10 -23 -5 -37 -17 -17 -18 -17 -11 1 6 15 4 17 -6 11 -9 -5 -11 -4 -6 3 4 6 2
20 -3 30 -8 15 -6 24 8 38 9 11 16 25 13 32 -2 6 1 12 7 12 6 0 10 -16 9 -35z
m82 -16 c0 -12 -5 -19 -11 -17 -6 2 -10 7 -10 11 1 4 1 14 1 23 0 8 5 12 10 9
6 -3 10 -15 10 -26z m-431 -28 c-6 -2 -18 4 -27 13 -15 15 -15 15 10 4 15 -7
23 -15 17 -17z m421 -5 c0 -3 -4 -8 -10 -11 -5 -3 -10 -1 -10 4 0 6 5 11 10
11 6 0 10 -2 10 -4z m-13 -58 c-2 -12 -9 -24 -15 -26 -7 -2 -12 -11 -13 -20 0
-10 -3 -12 -5 -5 -5 11 22 73 31 73 3 0 3 -10 2 -22z m-86 -27 c-6 -10 -7 -21
-3 -25 3 -4 -2 -4 -13 0 -11 5 -14 9 -7 12 7 2 12 10 12 18 0 8 5 14 10 14 7
0 7 -6 1 -19z m-78 -46 c-3 -9 -8 -14 -10 -11 -3 3 -2 9 2 15 9 16 15 13 8 -4z
m-5488 -11 c20 -16 20 -16 -2 -10 -12 4 -24 2 -28 -4 -6 -9 7 -14 28 -11 4 0
7 -3 7 -9 0 -5 7 -10 16 -10 8 0 13 -4 10 -8 -3 -5 15 -8 39 -7 24 0 42 -3 39
-7 -5 -7 28 -13 50 -9 5 1 13 -4 17 -10 4 -7 35 -15 71 -17 35 -2 73 -5 85 -6
11 0 19 -4 17 -7 -2 -3 3 -15 11 -25 14 -18 15 -18 21 4 9 31 28 27 47 -10
l17 -33 -6 35 c-6 33 -5 34 9 15 9 -11 19 -17 22 -13 4 4 16 3 26 -2 12 -7 19
-6 23 3 4 6 4 1 1 -13 -3 -14 -7 -30 -9 -37 -1 -7 -6 -16 -11 -20 -4 -4 -5 -2
0 6 5 9 4 12 -3 7 -17 -10 -15 -24 6 -29 18 -5 -52 -11 -103 -9 l-30 1 24 -20
c13 -10 19 -19 14 -19 -6 0 -26 -11 -46 -24 -20 -14 -37 -20 -39 -14 -2 5 -17
8 -33 6 -26 -4 -27 -5 -10 -12 11 -4 27 -11 35 -15 9 -5 20 -3 28 5 17 19 52
18 52 -2 0 -8 -4 -13 -9 -9 -5 3 -11 -5 -13 -17 -5 -36 -61 -38 -84 -4 -9 14
-21 26 -26 26 -6 0 -5 -6 2 -15 20 -25 -16 -19 -42 7 -18 18 -23 19 -32 6 -12
-15 -61 -10 -61 7 -1 22 -19 37 -41 32 -13 -2 -21 0 -18 4 3 5 -4 9 -15 9 -33
0 -50 11 -45 28 5 15 4 15 -9 0 -20 -26 -50 -24 -42 2 6 19 4 19 -20 8 -24
-11 -29 -10 -41 7 -8 10 -26 20 -41 22 -53 5 -52 5 -40 25 7 10 17 18 24 18
14 0 19 30 6 30 -5 0 -14 4 -22 9 -11 7 -11 12 0 32 13 24 15 30 18 49 0 5 16
3 34 -6 31 -15 36 -15 63 0 l29 17 -38 -6 c-28 -4 -42 -2 -55 11 -16 16 -15
17 13 10 l30 -7 -24 19 c-18 15 -21 21 -10 25 29 11 95 6 114 -9z m5485 -29
c-14 -17 -30 -20 -30 -6 0 5 8 12 18 14 9 3 19 5 21 6 2 0 -2 -6 -9 -14z
m-2440 -10 c7 -9 10 -27 7 -45 -7 -32 -41 -72 -52 -62 -4 4 -4 -3 -1 -15 6
-17 3 -23 -8 -23 -9 0 -16 -7 -16 -15 0 -8 -5 -15 -11 -15 -5 0 -7 -5 -4 -10
4 -6 -1 -22 -10 -36 -9 -14 -14 -32 -11 -40 3 -8 -4 -18 -15 -25 -11 -6 -18
-17 -15 -24 3 -9 0 -12 -10 -8 -7 3 -14 9 -14 15 0 19 40 96 52 101 10 4 10 7
1 14 -9 7 -5 18 18 42 19 21 28 39 24 51 -3 10 -1 21 5 25 5 3 10 17 10 30 0
52 24 71 50 40z m-1565 -40 c0 -5 -10 -11 -22 -13 -13 -2 -23 -7 -23 -12 0 -6
11 -5 26 0 35 14 39 13 22 -7 -8 -10 -13 -29 -12 -43 2 -30 -6 -46 -16 -31 -3
7 -7 -2 -7 -19 0 -18 -5 -35 -13 -40 -7 -4 -10 -12 -6 -18 3 -6 1 -14 -5 -18
-8 -4 -8 -9 -1 -13 15 -9 -16 -71 -37 -72 -9 0 -74 0 -146 0 -115 1 -162 3
-267 9 -22 2 -26 6 -21 20 6 16 5 16 -14 -1 -28 -25 -129 -21 -127 5 1 9 -5
19 -13 23 -11 4 -14 0 -10 -15 5 -21 -14 -32 -48 -25 -11 2 -26 4 -32 4 -7 1
-13 7 -13 14 0 23 -35 45 -55 34 -13 -7 -16 -6 -11 2 5 7 -1 11 -15 11 -18 0
-20 3 -11 12 8 8 8 15 1 24 -7 8 -6 14 1 19 6 4 18 -1 25 -11 20 -26 19 -9 -1
22 -16 23 -15 26 1 44 14 15 21 17 32 9 7 -6 13 -9 13 -5 0 3 0 9 0 14 0 4 -5
7 -12 7 -6 0 -13 6 -15 13 -6 15 23 16 33 1 4 -8 9 -7 16 2 6 10 7 6 3 -11 -5
-22 -2 -26 19 -28 15 -1 26 2 26 6 0 5 7 17 15 28 13 16 15 16 13 2 -2 -9 1
-17 6 -16 5 0 12 -4 15 -9 12 -17 72 -42 86 -37 27 11 16 22 -29 28 -24 4 -46
13 -49 20 -6 16 44 9 55 -8 5 -7 8 -7 8 -1 0 6 17 11 38 11 20 1 55 3 76 6 24
3 51 -1 69 -10 24 -12 31 -12 38 -1 4 7 5 16 2 19 -3 3 -8 -1 -10 -7 -3 -10
-9 -9 -20 3 -8 8 -13 17 -11 19 2 3 35 6 72 7 60 2 71 -1 86 -19 16 -21 30
-21 30 -1 0 5 -5 6 -12 2 -7 -4 -8 -3 -4 4 9 15 36 16 36 2 0 -18 40 -11 57
10 10 11 29 20 43 20 14 0 30 4 36 9 20 20 89 25 89 6z m1665 -16 c0 -14 -5
-19 -15 -16 -8 4 -17 2 -20 -3 -4 -6 0 -10 8 -10 8 0 18 -7 21 -16 5 -13 1
-15 -21 -9 -36 9 -35 7 -22 43 13 38 49 45 49 11z m-2410 -50 c0 -6 -4 -7 -10
-4 -5 3 -10 11 -10 16 0 6 5 7 10 4 6 -3 10 -11 10 -16z m2375 -41 c1 -15 -3
-24 -7 -22 -7 5 -12 -9 -10 -28 2 -14 -27 -16 -38 -3 -14 16 -7 45 10 45 6 0
8 -5 4 -12 -5 -7 -3 -8 5 -3 8 4 10 17 6 32 -5 20 -2 24 12 21 12 -2 18 -12
18 -30z m-3270 -58 c3 -5 2 -10 -4 -10 -5 0 -13 5 -16 10 -3 6 -2 10 4 10 5 0
13 -4 16 -10z m2125 -21 c0 -5 -4 -9 -10 -9 -5 0 -10 7 -10 16 0 8 5 12 10 9
6 -3 10 -10 10 -16z m1120 -14 c0 -8 -6 -15 -14 -15 -12 0 -25 -23 -30 -55 -5
-31 -19 -54 -28 -49 -7 5 -9 0 -6 -14 5 -18 2 -21 -16 -20 l-23 2 25 58 c17
40 30 57 39 53 8 -2 11 -1 8 5 -3 5 5 18 17 29 26 25 28 25 28 6z m-4556 -24
c-2 -3 -12 3 -22 13 -16 17 -16 18 5 5 12 -7 20 -15 17 -18z m1938 10 c11 6
20 4 29 -8 12 -15 12 -16 -3 -10 -10 3 -18 2 -18 -4 0 -6 -4 -8 -9 -4 -6 3
-15 -3 -21 -12 -11 -17 -11 -17 -6 0 3 9 1 17 -3 17 -5 0 -11 7 -15 15 -4 12
-2 13 12 6 11 -6 24 -6 34 0z m-1912 -31 c0 -5 -7 -7 -15 -4 -8 4 -15 8 -15
10 0 2 7 4 15 4 8 0 15 -4 15 -10z m2090 0 c0 -5 -8 -10 -17 -10 -15 0 -16 2
-3 10 19 12 20 12 20 0z m37 -16 c-9 -9 -28 6 -21 18 4 6 10 6 17 -1 6 -6 8
-13 4 -17z m1383 16 c0 -5 -2 -10 -4 -10 -3 0 -8 5 -11 10 -3 6 -1 10 4 10 6
0 11 -4 11 -10z m-325 -20 c3 -5 -3 -10 -15 -10 -12 0 -18 5 -15 10 3 6 10 10
15 10 5 0 12 -4 15 -10z m155 -10 c0 -5 -2 -10 -4 -10 -3 0 -8 5 -11 10 -3 6
-1 10 4 10 6 0 11 -4 11 -10z m-1750 -10 c8 -5 11 -10 5 -10 -5 0 -17 5 -25
10 -8 5 -10 10 -5 10 6 0 17 -5 25 -10z m60 -10 c0 -5 -4 -10 -10 -10 -5 0
-10 5 -10 10 0 6 5 10 10 10 6 0 10 -4 10 -10z m570 -20 c0 -5 -2 -10 -4 -10
-3 0 -8 5 -11 10 -3 6 -1 10 4 10 6 0 11 -4 11 -10z m338 -12 c-2 -9 8 -12 31
-10 28 3 31 1 21 -10 -14 -15 -84 -12 -74 3 3 5 -1 9 -8 9 -9 0 -9 3 2 10 21
13 30 12 28 -2z m212 -8 c6 -11 15 -20 21 -20 6 0 7 5 3 12 -4 7 -3 8 4 4 7
-4 12 -12 12 -17 0 -14 -91 0 -115 18 -20 15 -20 15 0 9 11 -3 27 -1 35 4 22
14 28 12 40 -10z m-274 -13 c4 -4 -16 -7 -45 -7 -29 0 -50 3 -48 8 6 9 83 9
93 -1z m174 -13 c0 -2 -15 -4 -32 -3 -27 0 -29 2 -13 8 18 8 45 4 45 -5z
m-388 -17 c-15 -7 -26 -7 -33 0 -6 6 1 10 23 10 30 0 30 -1 10 -10z m78 3 c0
-5 -5 -10 -11 -10 -5 0 -7 5 -4 10 3 6 8 10 11 10 2 0 4 -4 4 -10z m65 -9 c-3
-6 -14 -9 -25 -8 -24 2 -15 17 11 17 11 0 18 -4 14 -9z m146 -14 c-1 -12 -15
-9 -19 4 -3 6 1 10 8 8 6 -3 11 -8 11 -12z m74 4 c7 -12 -12 -24 -25 -16 -11
7 -4 25 10 25 5 0 11 -4 15 -9z m48 2 c-7 -2 -19 -2 -25 0 -7 3 -2 5 12 5 14
0 19 -2 13 -5z m48 -19 c-18 -8 -36 -12 -39 -9 -10 10 21 25 48 24 23 -1 22
-2 -9 -15z m63 2 c-4 -10 0 -13 14 -10 12 4 19 0 19 -10 0 -10 -4 -12 -11 -7
-6 5 -19 7 -28 6 -21 -4 -23 6 -6 23 16 16 19 15 12 -2z m-384 -6 c0 -13 -11
-13 -30 0 -12 8 -11 10 8 10 12 0 22 -4 22 -10z m40 -5 c5 3 11 1 15 -5 7 -11
-5 -13 -29 -4 -9 3 -13 11 -9 17 5 8 8 7 11 -1 2 -7 8 -10 12 -7z m3909 -259
c9 -11 9 -16 -1 -22 -7 -4 -10 -4 -6 1 4 4 3 14 -3 22 -6 7 -9 13 -6 13 2 0
10 -6 16 -14z m-6004 -26 c19 -8 19 -9 -2 -9 -12 -1 -25 4 -28 9 -7 12 2 12
30 0z m75 -40 c0 -5 -6 -12 -12 -16 -7 -4 -10 -4 -6 1 4 4 3 14 -4 22 -8 11
-7 12 6 7 9 -3 16 -10 16 -14z m36 -35 c-10 -8 -24 -11 -30 -8 -6 4 0 10 14
14 36 10 37 10 16 -6z m85 -19 c-12 -5 -21 -14 -21 -19 0 -6 -9 -2 -21 9 -19
17 -19 19 -4 30 13 10 23 10 42 1 25 -11 25 -11 4 -21z m5828 10 c9 -11 9 -16
0 -22 -7 -4 -9 -3 -5 4 3 6 -2 15 -11 21 -10 6 -13 11 -7 11 6 0 17 -6 23 -14z
m-6049 0 c0 -11 -19 -15 -25 -6 -3 5 1 10 9 10 9 0 16 -2 16 -4z m115 -35 c-6
-5 -25 10 -25 20 0 5 6 4 14 -3 8 -7 12 -15 11 -17z m74 -17 c13 -12 -8 -10
-29 2 l-25 15 25 -7 c14 -3 27 -8 29 -10z m58 10 c-3 -3 -12 -4 -19 -1 -8 3
-5 6 6 6 11 1 17 -2 13 -5z m-27 -18 c0 -3 -4 -8 -10 -11 -5 -3 -10 -1 -10 4
0 6 5 11 10 11 6 0 10 -2 10 -4z m-2 -47 c19 -30 11 -32 -11 -3 -10 13 -14 24
-10 24 5 0 14 -9 21 -21z m92 -93 c0 -2 -7 -7 -16 -10 -8 -3 -12 -2 -9 4 6 10
25 14 25 6z m85 -56 c-3 -5 -12 -10 -18 -10 -7 0 -6 4 3 10 19 12 23 12 15 0z
m835 -31 c0 -5 -7 -9 -15 -9 -8 0 -15 7 -15 15 0 9 6 12 15 9 8 -4 15 -10 15
-15z m105 1 c-3 -5 -14 -10 -23 -9 -14 0 -13 2 3 9 27 11 27 11 20 0z m68 -46
c-6 -17 -19 -18 -29 -2 -5 7 -11 5 -21 -7 -11 -17 -13 -17 -13 -2 0 13 -5 15
-25 7 -15 -6 -25 -6 -25 0 0 5 17 12 38 15 20 4 42 8 47 9 18 5 34 -6 28 -20z
m522 -64 c3 -6 -1 -7 -9 -4 -18 7 -21 14 -7 14 6 0 13 -4 16 -10z m3042 -86
c-3 -3 -12 -4 -19 -1 -8 3 -5 6 6 6 11 1 17 -2 13 -5z m-4129 -38 c-10 -7 -15
-16 -11 -19 3 -4 12 -2 20 4 7 6 13 9 13 6 0 -2 -6 -10 -13 -16 -11 -8 -18 -6
-33 11 -10 12 -14 19 -9 15 6 -3 17 -2 25 4 22 13 27 10 8 -5z m149 -54 c0
-11 -9 -18 -21 -19 -12 -1 -15 1 -7 4 11 5 11 7 0 15 -11 8 -10 9 4 4 9 -3 17
-1 17 4 0 6 2 10 4 10 3 0 4 -8 3 -18z m3702 -39 c-11 -12 -10 -14 2 -11 8 1
16 -1 17 -6 1 -6 -4 -11 -13 -12 -8 -1 -16 2 -16 7 -1 5 -2 15 -3 22 -3 18 4
28 15 21 6 -3 5 -11 -2 -21z m-146 0 c-13 -2 -33 -2 -45 0 -13 2 -3 4 22 4 25
0 35 -2 23 -4z m-3537 -31 c-18 -16 -18 -16 -6 6 6 13 14 21 18 18 3 -4 -2
-14 -12 -24z m67 11 c-7 -2 -19 -2 -25 0 -7 3 -2 5 12 5 14 0 19 -2 13 -5z
m107 -29 c0 -8 -5 -12 -10 -9 -6 4 -8 11 -5 16 9 14 15 11 15 -7z m-50 -8 c0
-3 -4 -8 -10 -11 -5 -3 -10 -1 -10 4 0 6 5 11 10 11 6 0 10 -2 10 -4z m34 -59
c-2 -18 23 -31 31 -17 4 6 12 10 18 10 7 0 4 -5 -6 -11 -9 -6 -14 -15 -10 -22
3 -6 -9 0 -28 13 -44 30 -48 35 -26 27 9 -4 17 -2 17 3 0 6 -6 10 -14 10 -8 0
-18 4 -21 10 -4 6 2 7 17 1 13 -5 22 -16 22 -24z m136 -11 c0 -2 -7 -7 -16
-10 -8 -3 -12 -2 -9 4 6 10 25 14 25 6z m280 -16 c0 -4 -7 -13 -15 -20 -9 -8
-15 -8 -15 -2 0 6 5 13 10 15 6 3 5 4 -2 3 -25 -5 -19 -32 9 -42 l28 -10 -32
0 c-17 1 -28 5 -25 10 3 5 -2 7 -11 3 -10 -3 -17 -2 -17 3 0 6 5 10 10 10 6 0
10 7 10 15 0 9 -6 12 -17 8 -16 -5 -16 -4 1 9 18 14 66 13 66 -2z m-180 6 c0
-2 -9 -6 -20 -9 -11 -3 -18 -1 -14 4 5 9 34 13 34 5z m50 0 c0 -2 -7 -9 -15
-16 -13 -11 -14 -10 -9 4 5 14 24 23 24 12z m2577 -2 c-3 -3 -12 -4 -19 -1 -8
3 -5 6 6 6 11 1 17 -2 13 -5z m-2542 -14 c-3 -5 -10 -10 -16 -10 -5 0 -9 5 -9
10 0 6 7 10 16 10 8 0 12 -4 9 -10z m335 -30 c0 -17 -58 -42 -66 -28 -4 7 -3
8 4 4 7 -4 12 -3 12 1 0 7 9 13 48 32 1 0 2 -3 2 -9z m1923 -7 c-13 -2 -33 -2
-45 0 -13 2 -3 4 22 4 25 0 35 -2 23 -4z m-2083 -23 c11 -7 5 -8 -20 -4 -43 8
-51 14 -19 14 13 0 31 -5 39 -10z m1443 -57 c-13 -2 -33 -2 -45 0 -13 2 -3 4
22 4 25 0 35 -2 23 -4z m-863 -33 c0 -13 -11 -13 -30 0 -12 8 -11 10 8 10 12
0 22 -4 22 -10z m143 -7 c-13 -2 -33 -2 -45 0 -13 2 -3 4 22 4 25 0 35 -2 23
-4z m400 -10 c-13 -2 -33 -2 -45 0 -13 2 -3 4 22 4 25 0 35 -2 23 -4z"/>
<path d="M5197 9496 c-4 -10 -3 -15 3 -11 6 3 10 2 10 -4 0 -5 -6 -12 -12 -14
-10 -4 -10 -6 -1 -6 18 -1 25 17 15 35 -8 15 -10 15 -15 0z"/>
<path d="M4866 9463 c-6 -14 -5 -15 5 -6 7 7 10 15 7 18 -3 3 -9 -2 -12 -12z"/>
<path d="M5048 9463 c7 -3 16 -2 19 1 4 3 -2 6 -13 5 -11 0 -14 -3 -6 -6z"/>
<path d="M5490 9280 c0 -5 5 -10 10 -10 6 0 10 5 10 10 0 6 -4 10 -10 10 -5 0
-10 -4 -10 -10z"/>
<path d="M5985 8580 c3 -5 8 -10 11 -10 2 0 4 5 4 10 0 6 -5 10 -11 10 -5 0
-7 -4 -4 -10z"/>
<path d="M6160 8160 c0 -5 10 -10 23 -10 18 0 19 2 7 10 -19 13 -30 13 -30 0z"/>
<path d="M6470 8086 c0 -25 12 -46 26 -46 10 0 11 6 4 24 -5 13 -6 27 -3 30 4
3 -1 6 -10 6 -9 0 -17 -6 -17 -14z"/>
<path d="M7388 5723 c7 -3 16 -2 19 1 4 3 -2 6 -13 5 -11 0 -14 -3 -6 -6z"/>
<path d="M8080 4750 c0 -5 5 -10 11 -10 5 0 7 5 4 10 -3 6 -8 10 -11 10 -2 0
-4 -4 -4 -10z"/>
<path d="M8450 3620 c0 -5 5 -10 10 -10 6 0 10 5 10 10 0 6 -4 10 -10 10 -5 0
-10 -4 -10 -10z"/>
<path d="M8460 3590 c0 -5 7 -10 15 -10 8 0 15 5 15 10 0 6 -7 10 -15 10 -8 0
-15 -4 -15 -10z"/>
<path d="M8500 3510 c0 -5 7 -10 16 -10 8 0 12 5 9 10 -3 6 -10 10 -16 10 -5
0 -9 -4 -9 -10z"/>
<path d="M8830 3330 c0 -19 3 -21 12 -12 9 9 9 15 0 24 -9 9 -12 7 -12 -12z"/>
<path d="M4605 9220 c4 -6 11 -8 16 -5 14 9 11 15 -7 15 -8 0 -12 -5 -9 -10z"/>
<path d="M3621 9187 c2 -1 12 -9 22 -16 15 -12 17 -12 11 3 -3 9 -13 16 -22
16 -8 0 -13 -1 -11 -3z"/>
<path d="M3880 9180 c0 -5 5 -10 11 -10 5 0 7 5 4 10 -3 6 -8 10 -11 10 -2 0
-4 -4 -4 -10z"/>
<path d="M5015 8690 c3 -5 8 -10 11 -10 2 0 4 5 4 10 0 6 -5 10 -11 10 -5 0
-7 -4 -4 -10z"/>
<path d="M5050 8400 c0 -5 5 -10 11 -10 5 0 7 5 4 10 -3 6 -8 10 -11 10 -2 0
-4 -4 -4 -10z"/>
<path d="M2685 8650 c-3 -5 1 -10 9 -10 9 0 16 5 16 10 0 6 -4 10 -9 10 -6 0
-13 -4 -16 -10z"/>
<path d="M2628 8383 c7 -3 16 -2 19 1 4 3 -2 6 -13 5 -11 0 -14 -3 -6 -6z"/>
<path d="M2230 7634 c0 -8 5 -12 10 -9 6 4 8 11 5 16 -9 14 -15 11 -15 -7z"/>
<path d="M2276 7085 c-3 -8 -1 -15 4 -15 6 0 10 7 10 15 0 8 -2 15 -4 15 -2 0
-6 -7 -10 -15z"/>
<path d="M1220 3399 c0 -5 5 -7 10 -4 6 3 10 8 10 11 0 2 -4 4 -10 4 -5 0 -10
-5 -10 -11z"/>
<path d="M1062 3330 c0 -14 2 -19 5 -12 2 6 2 18 0 25 -3 6 -5 1 -5 -13z"/>
<path d="M1130 3286 c0 -9 5 -16 10 -16 6 0 10 4 10 9 0 6 -4 13 -10 16 -5 3
-10 -1 -10 -9z"/>
<path d="M1167 3274 c-11 -11 -8 -26 3 -19 6 3 10 -2 11 -12 0 -10 3 -13 5 -6
7 15 -10 46 -19 37z"/>
<path d="M1410 3219 c0 -5 5 -7 10 -4 6 3 10 8 10 11 0 2 -4 4 -10 4 -5 0 -10
-5 -10 -11z"/>
<path d="M1270 3210 c0 -5 5 -10 10 -10 6 0 10 5 10 10 0 6 -4 10 -10 10 -5 0
-10 -4 -10 -10z"/>
<path d="M1250 3109 c0 -11 4 -18 10 -14 5 3 7 12 3 20 -7 21 -13 19 -13 -6z"/>
<path d="M1211 3014 c0 -11 3 -14 6 -6 3 7 2 16 -1 19 -3 4 -6 -2 -5 -13z"/>
<path d="M1206 2981 c8 -8 43 -8 38 0 -2 4 -13 7 -24 6 -10 -1 -17 -3 -14 -6z"/>
<path d="M1230 2951 c0 -7 -4 -9 -10 -6 -5 3 -10 4 -10 1 0 -3 9 -10 19 -16
15 -7 19 -7 17 5 -3 19 -16 32 -16 16z"/>
<path d="M1283 2841 c-2 -22 12 -37 21 -23 3 5 0 17 -7 26 -12 16 -13 16 -14
-3z"/>
<path d="M1260 2806 c0 -2 7 -7 16 -10 8 -3 12 -2 9 4 -6 10 -25 14 -25 6z"/>
<path d="M3127 8119 c7 -7 15 -10 18 -7 3 3 -2 9 -12 12 -14 6 -15 5 -6 -5z"/>
<path d="M5170 7150 c0 -5 5 -10 11 -10 5 0 7 5 4 10 -3 6 -8 10 -11 10 -2 0
-4 -4 -4 -10z"/>
<path d="M4840 7140 c0 -5 9 -14 20 -20 23 -12 26 -5 6 16 -17 16 -26 18 -26
4z"/>
<path d="M5000 7130 c0 -5 -6 -7 -14 -4 -14 5 -32 -13 -23 -23 9 -9 45 7 51
22 3 8 1 15 -4 15 -6 0 -10 -4 -10 -10z"/>
<path d="M4790 7120 c0 -5 5 -10 10 -10 6 0 10 5 10 10 0 6 -4 10 -10 10 -5 0
-10 -4 -10 -10z"/>
<path d="M4914 7088 c12 -44 16 -43 22 5 3 30 1 36 -14 34 -16 -1 -17 -5 -8
-39z"/>
<path d="M5077 7076 c-4 -10 -1 -13 9 -9 15 6 19 23 5 23 -5 0 -11 -7 -14 -14z"/>
<path d="M4712 7060 c12 -19 38 -30 73 -30 19 1 19 1 -1 13 -12 7 -19 17 -18
22 2 6 -12 11 -31 12 -31 1 -33 0 -23 -17z"/>
<path d="M4666 7055 c4 -8 8 -15 10 -15 2 0 4 7 4 15 0 8 -4 15 -10 15 -5 0
-7 -7 -4 -15z"/>
<path d="M4820 7050 c20 -13 33 -13 25 0 -3 6 -14 10 -23 10 -15 0 -15 -2 -2
-10z"/>
<path d="M4765 6990 c3 -5 8 -10 11 -10 2 0 4 5 4 10 0 6 -5 10 -11 10 -5 0
-7 -4 -4 -10z"/>
<path d="M4686 6961 c-4 -7 -5 -15 -2 -18 9 -9 19 4 14 18 -4 11 -6 11 -12 0z"/>
<path d="M5020 6950 c0 -5 5 -10 10 -10 6 0 10 5 10 10 0 6 -4 10 -10 10 -5 0
-10 -4 -10 -10z"/>
<path d="M5116 6951 c-4 -7 -5 -15 -2 -18 9 -9 19 4 14 18 -4 11 -6 11 -12 0z"/>
<path d="M5306 6947 c3 -10 9 -15 12 -12 3 3 0 11 -7 18 -10 9 -11 8 -5 -6z"/>
<path d="M5070 6930 c0 -5 4 -10 9 -10 6 0 13 5 16 10 3 6 -1 10 -9 10 -9 0
-16 -4 -16 -10z"/>
<path d="M4956 6903 c-6 -14 -5 -15 5 -6 7 7 10 15 7 18 -3 3 -9 -2 -12 -12z"/>
<path d="M5280 6900 c0 -6 -4 -9 -9 -5 -13 8 -25 -15 -14 -26 5 -5 16 -1 25
11 10 11 13 22 8 25 -6 4 -10 1 -10 -5z"/>
<path d="M5250 6540 c0 -5 5 -10 10 -10 6 0 10 5 10 10 0 6 -4 10 -10 10 -5 0
-10 -4 -10 -10z"/>
<path d="M5260 6360 c0 -5 5 -10 10 -10 6 0 10 5 10 10 0 6 -4 10 -10 10 -5 0
-10 -4 -10 -10z"/>
<path d="M3870 6960 c19 -13 30 -13 30 0 0 6 -10 10 -22 10 -19 0 -20 -2 -8
-10z"/>
<path d="M3755 6910 c4 -6 11 -8 16 -5 14 9 11 15 -7 15 -8 0 -12 -5 -9 -10z"/>
<path d="M3420 6850 c0 -5 5 -10 11 -10 5 0 7 5 4 10 -3 6 -8 10 -11 10 -2 0
-4 -4 -4 -10z"/>
<path d="M4010 6843 c8 -4 20 -13 27 -22 7 -9 13 -11 13 -5 0 15 -22 34 -39
33 -14 0 -14 -1 -1 -6z"/>
<path d="M4055 6610 c-3 -5 -1 -10 4 -10 6 0 11 5 11 10 0 6 -2 10 -4 10 -3 0
-8 -4 -11 -10z"/>
<path d="M4060 6530 c0 -5 5 -10 11 -10 5 0 7 5 4 10 -3 6 -8 10 -11 10 -2 0
-4 -4 -4 -10z"/>
<path d="M4050 6299 c0 -5 5 -7 10 -4 6 3 10 8 10 11 0 2 -4 4 -10 4 -5 0 -10
-5 -10 -11z"/>
<path d="M4100 6300 c0 -5 5 -10 10 -10 6 0 10 5 10 10 0 6 -4 10 -10 10 -5 0
-10 -4 -10 -10z"/>
<path d="M4070 6271 c0 -13 26 -32 33 -24 14 13 7 29 -13 30 -11 1 -20 -2 -20
-6z"/>
<path d="M4010 6245 c0 -8 5 -15 10 -15 6 0 10 7 10 15 0 8 -4 15 -10 15 -5 0
-10 -7 -10 -15z"/>
<path d="M5017 6694 c-8 -8 3 -34 14 -34 11 0 12 27 0 34 -4 3 -11 3 -14 0z"/>
<path d="M4910 6481 c0 -5 7 -11 15 -15 8 -3 15 -1 15 3 0 5 -7 11 -15 15 -8
3 -15 1 -15 -3z"/>
<path d="M4605 6450 c3 -5 8 -10 11 -10 2 0 4 5 4 10 0 6 -5 10 -11 10 -5 0
-7 -4 -4 -10z"/>
<path d="M4610 6395 c0 -8 4 -15 10 -15 5 0 7 7 4 15 -4 8 -8 15 -10 15 -2 0
-4 -7 -4 -15z"/>
<path d="M4675 6370 c3 -5 8 -10 11 -10 2 0 4 5 4 10 0 6 -5 10 -11 10 -5 0
-7 -4 -4 -10z"/>
<path d="M4690 6320 c0 -5 5 -10 10 -10 6 0 10 5 10 10 0 6 -4 10 -10 10 -5 0
-10 -4 -10 -10z"/>
<path d="M3480 6530 c0 -5 5 -10 11 -10 5 0 7 5 4 10 -3 6 -8 10 -11 10 -2 0
-4 -4 -4 -10z"/>
<path d="M3707 6334 c3 -56 0 -74 -8 -68 -7 4 -9 3 -6 -3 4 -6 21 -13 37 -15
25 -4 30 -2 24 11 -13 30 -16 81 -5 81 12 0 -20 62 -35 67 -6 2 -8 -26 -7 -73z"/>
<path d="M3415 6241 c-3 -5 -1 -12 5 -16 5 -3 10 1 10 9 0 18 -6 21 -15 7z"/>
<path d="M7370 4930 c0 -5 5 -10 10 -10 6 0 10 5 10 10 0 6 -4 10 -10 10 -5 0
-10 -4 -10 -10z"/>
<path d="M7396 4261 c-4 -7 -5 -15 -2 -18 9 -9 19 4 14 18 -4 11 -6 11 -12 0z"/>
<path d="M7380 4201 c-7 -15 -7 -21 0 -21 12 0 25 28 17 36 -3 3 -10 -4 -17
-15z"/>
<path d="M7440 4185 c0 -8 4 -15 10 -15 5 0 7 7 4 15 -4 8 -8 15 -10 15 -2 0
-4 -7 -4 -15z"/>
<path d="M7440 3695 c-15 -18 -13 -21 23 -30 18 -5 27 -3 27 5 0 7 -7 10 -15
6 -20 -7 -19 4 3 20 16 12 16 13 -4 14 -12 0 -27 -7 -34 -15z"/>
<path d="M7460 3629 c0 -5 5 -7 10 -4 6 3 10 8 10 11 0 2 -4 4 -10 4 -5 0 -10
-5 -10 -11z"/>
<path d="M7455 3600 c-3 -5 -1 -18 5 -29 5 -11 10 -28 10 -39 0 -21 23 -46 33
-36 3 4 -1 13 -9 22 -13 12 -13 16 -2 23 10 7 7 12 -11 25 -23 16 -23 18 -6
31 16 11 17 13 3 13 -9 0 -20 -4 -23 -10z"/>
<path d="M6655 3530 c10 -17 -5 -50 -23 -50 -15 0 -15 -2 -2 -10 11 -7 18 -3
27 13 15 27 17 57 2 57 -5 0 -7 -5 -4 -10z"/>
<path d="M7681 2814 c0 -11 3 -14 6 -6 3 7 2 16 -1 19 -3 4 -6 -2 -5 -13z"/>
<path d="M7690 2710 c0 -5 5 -10 10 -10 6 0 10 5 10 10 0 6 -4 10 -10 10 -5 0
-10 -4 -10 -10z"/>
<path d="M7675 2310 c-3 -5 -1 -10 4 -10 6 0 11 5 11 10 0 6 -2 10 -4 10 -3 0
-8 -4 -11 -10z"/>
<path d="M7635 2290 c3 -5 8 -10 11 -10 2 0 4 5 4 10 0 6 -5 10 -11 10 -5 0
-7 -4 -4 -10z"/>
<path d="M7700 2238 c0 -4 4 -8 9 -8 6 0 12 4 15 8 3 5 -1 9 -9 9 -8 0 -15 -4
-15 -9z"/>
<path d="M7750 2139 c0 -5 5 -7 10 -4 6 3 10 8 10 11 0 2 -4 4 -10 4 -5 0 -10
-5 -10 -11z"/>
<path d="M7705 2127 c-8 -19 -2 -31 13 -26 5 2 6 13 2 24 -7 19 -8 19 -15 2z"/>
<path d="M7685 2020 c-3 -5 -1 -10 4 -10 6 0 11 5 11 10 0 6 -2 10 -4 10 -3 0
-8 -4 -11 -10z"/>
<path d="M2170 1850 c0 -5 5 -10 10 -10 6 0 10 5 10 10 0 6 -4 10 -10 10 -5 0
-10 -4 -10 -10z"/>
<path d="M2065 1839 c-3 -5 1 -6 9 -3 9 3 16 1 16 -6 0 -6 5 -8 10 -5 6 3 10
9 10 13 0 11 -39 12 -45 1z"/>
<path d="M7328 1813 c6 -2 18 -2 25 0 6 3 1 5 -13 5 -14 0 -19 -2 -12 -5z"/>
<path d="M2670 1722 c0 -17 21 -25 31 -13 5 6 6 9 3 6 -4 -3 -13 0 -21 6 -9 8
-13 8 -13 1z"/>
<path d="M2840 1711 c0 -13 57 -34 71 -26 7 5 -3 13 -27 21 -47 16 -44 16 -44
5z"/>
<path d="M2350 1685 c0 -8 4 -15 10 -15 5 0 7 7 4 15 -4 8 -8 15 -10 15 -2 0
-4 -7 -4 -15z"/>
<path d="M2495 1674 c-4 -16 -8 -35 -11 -42 -2 -7 0 -11 5 -7 11 6 25 64 17
72 -3 3 -8 -8 -11 -23z"/>
<path d="M2816 1675 c4 -8 8 -15 10 -15 2 0 4 7 4 15 0 8 -4 15 -10 15 -5 0
-7 -7 -4 -15z"/>
<path d="M2570 1660 c0 -5 5 -10 10 -10 6 0 10 5 10 10 0 6 -4 10 -10 10 -5 0
-10 -4 -10 -10z"/>
<path d="M2920 1660 c0 -5 5 -10 11 -10 5 0 7 5 4 10 -3 6 -8 10 -11 10 -2 0
-4 -4 -4 -10z"/>
<path d="M5430 1646 c0 -20 13 -27 30 -15 12 7 12 9 -3 9 -10 0 -15 5 -12 10
3 6 1 10 -4 10 -6 0 -11 -6 -11 -14z"/>
<path d="M2680 1639 c0 -5 5 -7 10 -4 6 3 10 8 10 11 0 2 -4 4 -10 4 -5 0 -10
-5 -10 -11z"/>
<path d="M3345 1629 c-4 -6 -5 -12 -2 -15 2 -3 7 2 10 11 7 17 1 20 -8 4z"/>
<path d="M5500 1625 c0 -9 9 -15 21 -15 18 0 19 2 9 15 -7 8 -16 15 -21 15 -5
0 -9 -7 -9 -15z"/>
<path d="M2660 1611 c0 -5 7 -11 15 -15 8 -3 15 -1 15 3 0 5 -7 11 -15 15 -8
3 -15 1 -15 -3z"/>
<path d="M3342 1579 c2 -6 8 -10 13 -10 5 0 11 4 13 10 2 6 -4 11 -13 11 -9 0
-15 -5 -13 -11z"/>
<path d="M3626 1575 c-3 -8 -1 -15 4 -15 6 0 10 7 10 15 0 8 -2 15 -4 15 -2 0
-6 -7 -10 -15z"/>
<path d="M3973 1578 c-20 -26 -26 -41 -15 -34 12 7 36 46 29 46 -3 0 -9 -6
-14 -12z"/>
<path d="M2700 1571 c0 -6 4 -13 10 -16 6 -3 7 1 4 9 -7 18 -14 21 -14 7z"/>
<path d="M3575 1570 c-8 -13 5 -13 25 0 13 8 13 10 -2 10 -9 0 -20 -4 -23 -10z"/>
<path d="M5012 1555 c-13 -7 -20 -15 -15 -17 4 -3 19 1 31 7 13 7 20 15 15 17
-4 3 -19 -1 -31 -7z"/>
<path d="M3396 1551 c-10 -15 13 -24 28 -11 10 7 16 8 19 0 3 -6 4 -5 3 2 -3
16 -42 23 -50 9z"/>
<path d="M5133 1545 c0 -8 7 -15 15 -15 12 0 12 3 2 15 -7 8 -13 15 -15 15 -1
0 -2 -7 -2 -15z"/>
<path d="M4320 1539 c0 -5 5 -7 10 -4 6 3 10 8 10 11 0 2 -4 4 -10 4 -5 0 -10
-5 -10 -11z"/>
<path d="M4974 1521 c4 -39 21 -53 56 -44 29 7 63 36 39 33 -34 -5 -42 -1 -29
15 11 14 10 14 -16 5 -24 -9 -31 -8 -41 6 -11 16 -13 14 -9 -15z m66 -27 c0
-2 -11 -3 -24 -2 -14 1 -23 5 -20 9 4 7 44 0 44 -7z"/>
<path d="M3773 1519 c-1 -12 -1 -20 0 -18 2 2 9 12 16 22 11 14 11 17 -1 17
-7 0 -14 -10 -15 -21z"/>
<path d="M3960 1526 c0 -2 7 -7 16 -10 8 -3 12 -2 9 4 -6 10 -25 14 -25 6z"/>
<path d="M4095 1520 c3 -5 8 -10 11 -10 2 0 4 5 4 10 0 6 -5 10 -11 10 -5 0
-7 -4 -4 -10z"/>
<path d="M4495 1520 c-16 -7 -17 -9 -3 -9 9 -1 20 4 23 9 7 11 7 11 -20 0z"/>
<path d="M5200 1520 c0 -5 5 -10 10 -10 6 0 10 5 10 10 0 6 -4 10 -10 10 -5 0
-10 -4 -10 -10z"/>
<path d="M2525 1510 c3 -5 11 -10 16 -10 6 0 7 5 4 10 -3 6 -11 10 -16 10 -6
0 -7 -4 -4 -10z"/>
<path d="M2656 1509 c3 -6 1 -15 -6 -19 -7 -5 2 -10 25 -14 43 -8 60 0 21 10
-18 4 -25 11 -22 20 3 8 -1 14 -10 14 -9 0 -12 -5 -8 -11z"/>
<path d="M3390 1509 c-13 -9 -12 -10 3 -5 9 3 17 1 17 -3 0 -5 11 -8 24 -7 27
1 23 10 -9 20 -11 3 -27 1 -35 -5z"/>
<path d="M2777 1476 c-4 -10 -5 -21 -2 -24 9 -9 17 6 13 25 -3 17 -4 17 -11
-1z"/>
<path d="M3540 1480 c0 -13 12 -19 26 -13 21 8 17 19 -6 19 -11 0 -20 -3 -20
-6z"/>
<path d="M3969 1473 c-13 -16 -12 -17 4 -4 16 13 21 21 13 21 -2 0 -10 -8 -17
-17z"/>
<path d="M6618 1483 c7 -3 16 -2 19 1 4 3 -2 6 -13 5 -11 0 -14 -3 -6 -6z"/>
<path d="M4468 1473 c7 -3 16 -2 19 1 4 3 -2 6 -13 5 -11 0 -14 -3 -6 -6z"/>
<path d="M5100 1459 c0 -5 5 -7 10 -4 6 3 10 8 10 11 0 2 -4 4 -10 4 -5 0 -10
-5 -10 -11z"/>
<path d="M4715 1450 c3 -5 14 -10 23 -10 15 0 15 2 2 10 -20 13 -33 13 -25 0z"/>
<path d="M2785 1440 c-15 -7 -11 -8 17 -7 21 1 38 5 38 10 0 9 -30 8 -55 -3z"/>
<path d="M3210 1439 c0 -5 5 -7 10 -4 6 3 10 8 10 11 0 2 -4 4 -10 4 -5 0 -10
-5 -10 -11z"/>
<path d="M2712 1428 c2 -6 10 -13 16 -14 7 -1 8 0 2 3 -5 2 -8 9 -4 14 3 5 0
9 -6 9 -7 0 -10 -5 -8 -12z"/>
<path d="M3058 1433 c7 -3 16 -2 19 1 4 3 -2 6 -13 5 -11 0 -14 -3 -6 -6z"/>
<path d="M3750 1409 c0 -5 5 -7 10 -4 6 3 10 8 10 11 0 2 -4 4 -10 4 -5 0 -10
-5 -10 -11z"/>
<path d="M2863 1383 c0 -11 7 -20 14 -20 10 0 10 4 1 16 -7 9 -13 18 -15 20
-1 2 -1 -5 0 -16z"/>
<path d="M2930 1376 c0 -2 7 -6 15 -10 8 -3 15 -1 15 4 0 6 -7 10 -15 10 -8 0
-15 -2 -15 -4z"/>
<path d="M3140 1369 c0 -5 5 -7 10 -4 6 3 10 8 10 11 0 2 -4 4 -10 4 -5 0 -10
-5 -10 -11z"/>
<path d="M2998 1353 c6 -2 18 -2 25 0 6 3 1 5 -13 5 -14 0 -19 -2 -12 -5z"/>
<path d="M2955 1340 c-3 -5 1 -10 10 -10 9 0 13 5 10 10 -3 6 -8 10 -10 10 -2
0 -7 -4 -10 -10z"/>
<path d="M3338 1343 c7 -3 16 -2 19 1 4 3 -2 6 -13 5 -11 0 -14 -3 -6 -6z"/>
<path d="M3650 1331 c0 -6 4 -13 10 -16 6 -3 7 1 4 9 -7 18 -14 21 -14 7z"/>
<path d="M3080 1310 c-12 -8 -11 -10 8 -10 12 0 21 -5 20 -12 -2 -6 5 -14 16
-16 23 -5 17 16 -10 34 -13 9 -24 10 -34 4z"/>
<path d="M3690 1310 c0 -5 5 -10 10 -10 6 0 10 5 10 10 0 6 -4 10 -10 10 -5 0
-10 -4 -10 -10z"/>
<path d="M5938 1303 c12 -2 32 -2 45 0 12 2 2 4 -23 4 -25 0 -35 -2 -22 -4z"/>
<path d="M5938 1283 c12 -2 32 -2 45 0 12 2 2 4 -23 4 -25 0 -35 -2 -22 -4z"/>
<path d="M3156 1255 c4 -8 11 -15 16 -15 6 0 5 6 -2 15 -7 8 -14 15 -16 15 -2
0 -1 -7 2 -15z"/>
<path d="M3343 1241 c0 -11 5 -18 9 -15 4 3 5 11 1 19 -7 21 -12 19 -10 -4z"/>
<path d="M3426 1241 c-17 -19 -17 -19 3 -14 12 3 21 12 21 19 0 18 -4 18 -24
-5z"/>
<path d="M3225 1240 c3 -5 8 -10 11 -10 2 0 4 5 4 10 0 6 -5 10 -11 10 -5 0
-7 -4 -4 -10z"/>
<path d="M5710 1240 c0 -5 11 -10 25 -10 14 0 25 5 25 10 0 6 -11 10 -25 10
-14 0 -25 -4 -25 -10z"/>
<path d="M3088 1223 c7 -3 16 -2 19 1 4 3 -2 6 -13 5 -11 0 -14 -3 -6 -6z"/>
<path d="M3375 1170 c-3 -5 1 -10 10 -10 9 0 13 5 10 10 -3 6 -8 10 -10 10 -2
0 -7 -4 -10 -10z"/>
<path d="M4978 1143 c12 -2 32 -2 45 0 12 2 2 4 -23 4 -25 0 -35 -2 -22 -4z"/>
<path d="M4578 1083 c12 -2 32 -2 45 0 12 2 2 4 -23 4 -25 0 -35 -2 -22 -4z"/>
<path d="M4810 4830 l-35 -7 35 -1 c19 0 44 3 55 8 l20 9 -20 -1 c-11 0 -36
-4 -55 -8z"/>
<path d="M5080 4830 c0 -5 5 -10 10 -10 6 0 10 5 10 10 0 6 -4 10 -10 10 -5 0
-10 -4 -10 -10z"/>
<path d="M5766 4614 c-5 -14 -4 -15 9 -4 17 14 19 20 6 20 -5 0 -12 -7 -15
-16z"/>
<path d="M5688 4573 c6 -2 18 -2 25 0 6 3 1 5 -13 5 -14 0 -19 -2 -12 -5z"/>
<path d="M5608 4563 c7 -3 16 -2 19 1 4 3 -2 6 -13 5 -11 0 -14 -3 -6 -6z"/>
<path d="M5640 4555 c-8 -9 -8 -15 -2 -15 12 0 26 19 19 26 -2 2 -10 -2 -17
-11z"/>
<path d="M5560 4475 c0 -8 4 -15 10 -15 5 0 7 7 4 15 -4 8 -8 15 -10 15 -2 0
-4 -7 -4 -15z"/>
<path d="M5636 4405 c4 -8 8 -15 10 -15 2 0 4 7 4 15 0 8 -4 15 -10 15 -5 0
-7 -7 -4 -15z"/>
<path d="M5630 4371 c0 -6 4 -13 10 -16 6 -3 7 1 4 9 -7 18 -14 21 -14 7z"/>
<path d="M5607 4300 c-3 -11 -2 -20 3 -20 12 0 21 28 11 35 -5 2 -11 -4 -14
-15z"/>
<path d="M4345 4631 c11 -5 40 -5 65 -1 43 7 43 8 -20 8 -42 1 -58 -2 -45 -7z"/>
<path d="M4495 4630 c-4 -6 6 -7 27 -3 44 8 48 13 10 13 -17 0 -34 -4 -37 -10z"/>
<path d="M4465 4440 c-3 -5 -2 -10 4 -10 5 0 13 5 16 10 3 6 2 10 -4 10 -5 0
-13 -4 -16 -10z"/>
<path d="M3140 4661 c0 -6 5 -13 10 -16 6 -3 10 1 10 9 0 9 -4 16 -10 16 -5 0
-10 -4 -10 -9z"/>
<path d="M5030 4555 c0 -14 4 -25 9 -25 4 0 6 11 3 25 -2 14 -6 25 -8 25 -2 0
-4 -11 -4 -25z"/>
<path d="M3516 4629 c3 -5 19 -9 36 -9 17 0 28 3 24 7 -11 11 -67 12 -60 2z"/>
<path d="M3810 4561 c0 -12 5 -21 10 -21 6 0 10 6 10 14 0 8 -4 18 -10 21 -5
3 -10 -3 -10 -14z"/>
<path d="M3791 4496 c-7 -9 -21 -16 -29 -16 -12 0 -13 -3 -4 -12 7 -7 12 -21
12 -32 0 -16 2 -18 9 -7 5 8 7 21 3 29 -3 10 -1 13 6 8 13 -8 26 16 20 35 -2
7 -8 6 -17 -5z"/>
<path d="M3096 4571 c10 -10 30 -14 54 -11 11 1 9 4 -5 10 -28 12 -61 12 -49
1z"/>
<path d="M2826 4548 c5 -8 2 -9 -9 -5 -9 3 -23 -1 -32 -10 -19 -18 -12 -31 8
-15 8 7 17 9 20 5 9 -8 38 17 31 28 -3 5 -10 9 -15 9 -6 0 -7 -5 -3 -12z"/>
<path d="M2735 4530 c-8 -13 5 -13 25 0 13 8 13 10 -2 10 -9 0 -20 -4 -23 -10z"/>
<path d="M3985 4209 c-11 -16 -1 -19 13 -3 7 8 8 14 3 14 -5 0 -13 -5 -16 -11z"/>
<path d="M3777 4153 c-4 -3 -7 -11 -7 -17 0 -6 5 -5 12 2 6 6 9 14 7 17 -3 3
-9 2 -12 -2z"/>
<path d="M3840 4128 c0 -5 16 -8 36 -8 21 0 33 -4 29 -10 -3 -5 -1 -10 5 -10
6 0 10 8 8 18 -2 12 -13 17 -41 17 -20 0 -37 -3 -37 -7z"/>
<path d="M3790 4110 c0 -5 5 -10 11 -10 5 0 7 5 4 10 -3 6 -8 10 -11 10 -2 0
-4 -4 -4 -10z"/>
<path d="M3890 4068 c0 -11 28 -10 35 1 3 6 -4 9 -15 8 -11 -1 -20 -5 -20 -9z"/>
<path d="M3805 3991 c-3 -5 -1 -12 5 -16 5 -3 10 1 10 9 0 18 -6 21 -15 7z"/>
<path d="M3460 4265 c-7 -9 -8 -15 -2 -15 5 0 12 7 16 15 3 8 4 15 2 15 -2 0
-9 -7 -16 -15z"/>
<path d="M3478 4123 c7 -3 16 -2 19 1 4 3 -2 6 -13 5 -11 0 -14 -3 -6 -6z"/>
<path d="M4400 4241 c0 -6 4 -13 10 -16 6 -3 7 1 4 9 -7 18 -14 21 -14 7z"/>
<path d="M4120 4115 c-11 -13 -10 -14 4 -9 9 3 16 10 16 15 0 13 -6 11 -20 -6z"/>
<path d="M4116 4081 c-3 -5 1 -11 9 -14 9 -4 12 -1 8 9 -6 16 -10 17 -17 5z"/>
<path d="M2494 3954 c-2 -23 -1 -24 12 -7 17 23 17 33 2 33 -7 0 -14 -11 -14
-26z"/>
<path d="M2425 3880 c-3 -5 -1 -10 4 -10 6 0 11 5 11 10 0 6 -2 10 -4 10 -3 0
-8 -4 -11 -10z"/>
<path d="M2420 3789 c0 -5 5 -7 10 -4 6 3 10 8 10 11 0 2 -4 4 -10 4 -5 0 -10
-5 -10 -11z"/>
<path d="M5550 4011 c0 -6 4 -13 10 -16 6 -3 7 1 4 9 -7 18 -14 21 -14 7z"/>
<path d="M4948 3712 c-24 -5 -23 -21 1 -19 11 0 17 5 15 9 -6 10 10 11 20 1
11 -11 66 -12 66 -2 0 5 -3 9 -7 10 -27 4 -81 4 -95 1z"/>
<path d="M4920 3620 c-12 -8 -11 -10 8 -10 12 0 22 5 22 10 0 13 -11 13 -30 0z"/>
<path d="M4888 3523 c5 -21 7 -23 10 -9 2 10 0 22 -6 28 -6 6 -7 0 -4 -19z"/>
<path d="M2960 3905 c0 -16 16 -20 24 -6 3 5 -1 11 -9 15 -9 3 -15 0 -15 -9z"/>
<path d="M2767 3859 c7 -7 15 -10 18 -7 3 3 -2 9 -12 12 -14 6 -15 5 -6 -5z"/>
<path d="M4645 3940 c-4 -7 -1 -16 6 -21 17 -10 26 8 11 23 -6 6 -12 6 -17 -2z"/>
<path d="M4560 3919 c0 -5 5 -7 10 -4 6 3 10 8 10 11 0 2 -4 4 -10 4 -5 0 -10
-5 -10 -11z"/>
<path d="M4605 3690 c3 -5 10 -10 16 -10 5 0 9 5 9 10 0 6 -7 10 -16 10 -8 0
-12 -4 -9 -10z"/>
<path d="M4649 3686 c-1 -3 -2 -12 -3 -18 -1 -7 -9 -12 -19 -12 -14 2 -15 -1
-6 -12 7 -8 12 -13 13 -12 1 2 9 13 19 25 12 14 15 23 8 28 -6 3 -12 4 -12 1z"/>
<path d="M4560 3670 c0 -5 5 -10 10 -10 6 0 10 5 10 10 0 6 -4 10 -10 10 -5 0
-10 -4 -10 -10z"/>
<path d="M4585 3651 c-3 -5 -1 -12 5 -16 5 -3 10 1 10 9 0 18 -6 21 -15 7z"/>
<path d="M4715 3650 c3 -5 8 -10 11 -10 2 0 4 5 4 10 0 6 -5 10 -11 10 -5 0
-7 -4 -4 -10z"/>
<path d="M4530 3639 c0 -5 5 -7 10 -4 6 3 10 8 10 11 0 2 -4 4 -10 4 -5 0 -10
-5 -10 -11z"/>
<path d="M4668 3643 c6 -2 18 -2 25 0 6 3 1 5 -13 5 -14 0 -19 -2 -12 -5z"/>
<path d="M4496 3632 c-2 -4 -1 -14 5 -22 6 -11 9 -12 9 -2 0 8 5 10 13 6 8 -5
8 -2 -2 9 -15 19 -18 20 -25 9z"/>
<path d="M4259 3624 c-22 -16 -27 -24 -16 -24 9 0 20 7 25 15 5 10 15 13 25 9
9 -3 14 -10 11 -15 -3 -5 -1 -9 5 -9 18 0 18 15 0 32 -16 15 -19 15 -50 -8z"/>
<path d="M3906 3805 c-19 -15 -19 -15 2 -15 13 0 22 6 22 15 0 18 0 18 -24 0z"/>
<path d="M3726 3765 c-3 -8 -1 -15 4 -15 6 0 10 5 10 11 0 5 5 7 10 4 6 -3 10
-1 10 4 0 17 -27 13 -34 -4z"/>
<path d="M3871 3704 c0 -11 3 -14 6 -6 3 7 2 16 -1 19 -3 4 -6 -2 -5 -13z"/>
<path d="M3765 3590 c3 -5 11 -10 16 -10 6 0 7 5 4 10 -3 6 -11 10 -16 10 -6
0 -7 -4 -4 -10z"/>
<path d="M2790 3581 c0 -5 8 -11 18 -14 9 -2 26 -8 36 -13 13 -5 17 -4 13 3
-9 14 -67 35 -67 24z"/>
<path d="M2685 3530 c-3 -5 -1 -10 4 -10 6 0 11 5 11 10 0 6 -2 10 -4 10 -3 0
-8 -4 -11 -10z"/>
<path d="M8380 3016 c0 -9 5 -16 10 -16 6 0 10 4 10 9 0 6 -4 13 -10 16 -5 3
-10 -1 -10 -9z"/>
<path d="M2805 2800 c-3 -5 -1 -10 4 -10 6 0 11 5 11 10 0 6 -2 10 -4 10 -3 0
-8 -4 -11 -10z"/>
<path d="M2760 2705 c-7 -8 -9 -15 -6 -15 4 0 14 7 22 15 9 8 11 15 6 15 -5 0
-15 -7 -22 -15z"/>
<path d="M3108 2673 c7 -3 16 -2 19 1 4 3 -2 6 -13 5 -11 0 -14 -3 -6 -6z"/>
<path d="M3180 2604 c0 -14 3 -14 15 -4 8 7 15 14 15 16 0 2 -7 4 -15 4 -8 0
-15 -7 -15 -16z"/>
<path d="M3220 2560 c0 -5 -7 -10 -15 -10 -8 0 -15 -5 -15 -10 0 -7 6 -7 18
-2 9 5 24 7 32 4 13 -5 13 -3 1 11 -15 19 -21 21 -21 7z"/>
<path d="M3050 2540 c13 -11 35 -19 49 -19 17 1 20 3 8 6 -9 2 -15 8 -12 13 3
4 -3 6 -14 3 -10 -3 -22 0 -25 6 -4 6 -12 11 -18 11 -6 0 -1 -9 12 -20z"/>
<path d="M3148 2551 c-10 -3 -14 -11 -10 -16 11 -15 42 -15 42 1 0 17 -11 23
-32 15z"/>
<path d="M3004 2514 c3 -9 6 -19 6 -22 0 -9 20 21 20 31 0 4 -7 7 -16 7 -11 0
-14 -5 -10 -16z"/>
<path d="M3035 2510 c-3 -5 1 -10 10 -10 9 0 13 5 10 10 -3 6 -8 10 -10 10 -2
0 -7 -4 -10 -10z"/>
<path d="M5880 2770 c0 -6 7 -10 15 -10 8 0 15 2 15 4 0 2 -7 6 -15 10 -8 3
-15 1 -15 -4z"/>
<path d="M5870 2700 c0 -5 5 -10 11 -10 5 0 7 5 4 10 -3 6 -8 10 -11 10 -2 0
-4 -4 -4 -10z"/>
<path d="M4272 2714 c-7 -8 -8 -14 -3 -14 10 0 25 19 20 25 -2 1 -10 -3 -17
-11z"/>
<path d="M4203 2703 c9 -2 25 -2 35 0 9 3 1 5 -18 5 -19 0 -27 -2 -17 -5z"/>
<path d="M3976 2692 c-8 -13 39 -36 58 -29 23 9 19 26 -4 20 -11 -3 -26 0 -34
6 -8 7 -17 8 -20 3z"/>
<path d="M4245 2612 c29 -27 45 -31 45 -12 0 5 -11 12 -25 16 -14 3 -25 10
-25 15 0 5 -6 9 -12 9 -7 0 1 -13 17 -28z"/>
<path d="M3500 2620 c0 -5 5 -10 10 -10 6 0 10 5 10 10 0 6 -4 10 -10 10 -5 0
-10 -4 -10 -10z"/>
<path d="M3836 2622 c-2 -4 7 -9 22 -10 21 -1 24 0 12 8 -18 12 -27 12 -34 2z"/>
<path d="M4025 2620 c-3 -5 -1 -10 4 -10 6 0 11 5 11 10 0 6 -2 10 -4 10 -3 0
-8 -4 -11 -10z"/>
<path d="M3788 2613 c7 -3 16 -2 19 1 4 3 -2 6 -13 5 -11 0 -14 -3 -6 -6z"/>
<path d="M3900 2610 c0 -3 14 -6 30 -6 17 0 30 3 30 7 0 4 -13 7 -30 7 -16 -1
-30 -4 -30 -8z"/>
<path d="M4170 2594 c-14 -8 -17 -13 -7 -10 10 3 25 6 33 6 8 0 14 5 14 10 0
14 -10 12 -40 -6z"/>
<path d="M3750 2589 c0 -5 5 -7 10 -4 6 3 10 8 10 11 0 2 -4 4 -10 4 -5 0 -10
-5 -10 -11z"/>
<path d="M3585 2580 c3 -5 11 -10 16 -10 6 0 7 5 4 10 -3 6 -11 10 -16 10 -6
0 -7 -4 -4 -10z"/>
<path d="M3541 2568 c-1 -20 14 -24 25 -6 4 6 3 8 -4 4 -5 -3 -13 0 -15 6 -3
8 -6 6 -6 -4z"/>
<path d="M3500 2539 c0 -5 5 -7 10 -4 6 3 10 8 10 11 0 2 -4 4 -10 4 -5 0 -10
-5 -10 -11z"/>
<path d="M4250 2540 c0 -5 -9 -10 -20 -10 -11 0 -20 -4 -20 -9 0 -6 12 -6 30
1 34 11 49 28 26 28 -9 0 -16 -4 -16 -10z"/>
<path d="M3940 2530 c0 -5 4 -10 9 -10 6 0 13 5 16 10 3 6 -1 10 -9 10 -9 0
-16 -4 -16 -10z"/>
<path d="M3555 2520 c3 -5 8 -10 11 -10 2 0 4 5 4 10 0 6 -5 10 -11 10 -5 0
-7 -4 -4 -10z"/>
<path d="M3894 2506 c-8 -22 1 -30 21 -19 15 9 15 11 1 22 -13 11 -17 10 -22
-3z"/>
<path d="M3995 2511 c-6 -11 33 -26 43 -16 4 3 0 10 -8 15 -19 12 -27 12 -35
1z"/>
<path d="M4095 2470 c-3 -5 1 -10 10 -10 9 0 13 5 10 10 -3 6 -8 10 -10 10 -2
0 -7 -4 -10 -10z"/>
<path d="M1940 1938 c0 -11 12 -10 30 2 12 7 10 9 -8 7 -12 0 -22 -5 -22 -9z"/>
</g>
</svg>
